<svg version="1.1" id="Layer_1" xmlns="http://www.w3.org/2000/svg" xmlns:xlink="http://www.w3.org/1999/xlink" x="0px" y="0px"
	 width="100%" viewBox="0 0 384 450" enable-background="new 0 0 384 450" xml:space="preserve">
<path fill="#FFFFFF" opacity="1.000000" stroke="none" 
	d="
M1.000000,225.000000 
	C1.000000,150.391479 1.000000,75.782959 1.000000,1.000000 
	C113.354164,1.000000 225.708420,1.000000 338.423706,1.359569 
	C334.784576,4.050437 329.874451,5.574963 326.956573,8.865876 
	C318.552460,18.344381 310.935699,28.522541 303.040436,38.450340 
	C288.873627,56.264187 274.703949,74.075890 260.591919,91.933075 
	C256.669830,96.896049 252.356567,101.885979 256.956329,108.758156 
	C257.072479,108.931656 256.806122,109.361198 256.672180,109.833374 
	C251.923798,112.296623 247.090347,114.819901 242.242798,117.315796 
	C226.955536,125.186852 211.871521,133.492264 196.314301,140.788269 
	C180.515945,148.197342 164.972488,155.795593 151.410080,167.010559 
	C136.113602,179.659439 127.980637,195.594086 127.981216,215.564590 
	C127.981369,220.990372 126.827759,221.997986 121.236786,221.998444 
	C84.096802,222.001480 46.956654,222.047211 9.817089,221.922653 
	C6.334451,221.910965 3.438845,222.530243 1.000000,225.000000 
M72.533607,131.000000 
	C80.300369,131.000000 88.067131,131.000000 95.702545,131.000000 
	C95.702545,127.668762 95.702545,124.929451 95.702545,121.806458 
	C84.668045,121.806458 73.926247,121.806458 62.805809,121.806458 
	C62.805809,109.996658 62.805809,98.583839 62.805809,87.298798 
	C59.331394,87.298798 56.256145,87.298798 52.801674,87.298798 
	C52.801674,99.001518 52.801674,110.409966 52.801674,122.196304 
	C41.658367,122.196304 30.910599,122.196304 20.299229,122.196304 
	C20.299229,125.334534 20.299229,128.073929 20.299229,131.196854 
	C31.335524,131.196854 42.077274,131.196854 53.197617,131.196854 
	C53.197617,142.673584 53.197617,153.753265 53.197617,164.699341 
	C56.672783,164.699341 59.745392,164.699341 63.202045,164.699341 
	C63.202045,153.327988 63.202045,142.252762 63.202045,131.000000 
	C66.248550,131.000000 68.896301,131.000000 72.533607,131.000000 
z"/>
<path fill="#040707" opacity="1.000000" stroke="none" 
	d="
M1.000000,225.468658 
	C3.438845,222.530243 6.334451,221.910965 9.817089,221.922653 
	C46.956654,222.047211 84.096802,222.001480 121.236786,221.998444 
	C126.827759,221.997986 127.981369,220.990372 127.981216,215.564590 
	C127.980637,195.594086 136.113602,179.659439 151.410080,167.010559 
	C164.972488,155.795593 180.515945,148.197342 196.314301,140.788269 
	C211.871521,133.492264 226.955536,125.186852 242.242798,117.315796 
	C247.090347,114.819901 251.923798,112.296623 256.672180,109.833374 
	C256.806122,109.361198 257.072479,108.931656 256.956329,108.758156 
	C252.356567,101.885979 256.669830,96.896049 260.591919,91.933075 
	C274.703949,74.075890 288.873627,56.264187 303.040436,38.450340 
	C310.935699,28.522541 318.552460,18.344381 326.956573,8.865876 
	C329.874451,5.574963 334.784576,4.050437 338.892395,1.359569 
	C343.689240,1.000000 348.378510,1.000000 353.640991,1.359105 
	C357.600525,3.495047 361.413055,4.760035 364.286194,7.152958 
	C370.698578,12.493567 377.413910,23.412752 374.318726,34.408009 
	C372.318848,41.512398 368.571259,47.225086 364.063599,52.801620 
	C354.257843,64.932518 344.675720,77.244247 335.012054,89.489861 
	C326.659668,100.073868 318.716949,111.016388 309.833710,121.133621 
	C304.123474,127.637085 300.514374,138.275116 288.196930,134.681961 
	C281.694061,163.780060 275.324463,192.281799 268.780487,221.563812 
	C271.296570,221.738876 273.173065,221.982040 275.049652,221.983292 
	C309.364929,222.006149 343.680267,221.987381 377.995453,222.037918 
	C379.680054,222.040390 381.363892,222.594559 382.879944,223.282944 
	C382.477325,224.627457 382.041748,225.580200 382.038605,226.534348 
	C381.992462,240.631516 381.973755,254.729019 382.046997,268.825928 
	C382.054413,270.255951 382.697479,271.682709 382.868195,273.461639 
	C380.640839,274.208282 378.487000,274.339600 376.576050,275.089752 
	C375.215240,275.623962 373.469055,276.784698 373.111877,278.018250 
	C369.593903,290.168823 367.111389,302.675690 362.820862,314.533508 
	C355.555908,334.612030 344.252747,352.483704 329.451202,367.952576 
	C323.405426,374.270935 316.967896,380.246216 310.397247,386.023438 
	C299.185333,395.881531 286.621490,403.715698 273.104431,410.070892 
	C271.764740,410.700745 270.244873,412.538696 270.140472,413.916748 
	C269.777161,418.713654 269.786774,423.566406 270.046021,428.376831 
	C270.530975,437.375885 269.040192,445.465088 261.000000,451.000000 
	C216.645767,451.000000 172.291550,451.000000 127.375793,450.653961 
	C120.543137,447.932495 117.802788,443.361267 117.962494,436.702454 
	C118.130104,429.714478 117.802399,422.711426 118.084229,415.730804 
	C118.222954,412.294983 116.620102,410.664703 113.877502,409.378143 
	C109.388275,407.272217 104.774002,405.353027 100.523911,402.830383 
	C76.715340,388.698608 56.439919,370.758362 40.914692,347.603180 
	C26.997244,326.845947 18.085773,304.205078 13.874524,279.609711 
	C13.586187,277.925751 11.428416,275.133667 10.416931,275.250671 
	C6.194644,275.739044 3.730401,273.270905 1.000000,271.000000 
	C1.000000,255.979111 1.000000,240.958206 1.000000,225.468658 
M251.500000,275.000000 
	C179.031158,275.000000 106.562309,275.013763 34.093498,274.963745 
	C30.000538,274.960938 26.442867,274.810638 28.943613,280.662872 
	C29.624748,282.256836 29.622492,284.134155 30.005455,285.865570 
	C36.489544,315.180756 50.507851,340.448181 71.430916,361.834076 
	C81.705635,372.336090 93.319572,381.201172 106.065369,388.662018 
	C124.955185,399.719330 144.938873,406.835632 167.027023,406.975891 
	C185.518311,407.093292 204.013702,407.180634 222.501480,406.900269 
	C228.825012,406.804413 235.245438,406.079773 241.425430,404.738525 
	C269.597687,398.624390 293.226501,383.945618 313.262512,363.838409 
	C322.707550,354.359741 330.724030,343.235016 338.180725,332.051300 
	C348.629578,316.379913 354.093414,298.536316 358.155090,280.202087 
	C359.300903,275.029877 357.402008,274.934113 353.456390,274.945343 
	C319.804474,275.040802 286.152191,275.000000 251.500000,275.000000 
M189.500000,236.000000 
	C133.501328,236.000000 77.502640,236.000000 21.503962,236.000031 
	C20.503984,236.000031 19.248053,235.619034 18.558374,236.081772 
	C17.205744,236.989304 15.260825,238.295288 15.160879,239.562546 
	C14.768980,244.531555 14.999385,249.549683 15.000213,254.549576 
	C15.001279,260.998535 15.001934,260.999786 21.603365,260.999817 
	C134.100784,261.000061 246.598190,260.993591 359.095581,261.040100 
	C361.667694,261.041168 364.291107,262.093353 366.794281,261.808624 
	C368.611511,261.601929 371.705811,260.077515 371.767792,258.999207 
	C372.202972,251.423874 371.998474,243.811783 371.998474,236.000000 
	C311.118317,236.000000 250.809158,236.000000 189.500000,236.000000 
M326.449829,32.039627 
	C318.041412,42.786041 309.667542,53.559727 301.215179,64.271477 
	C292.149231,75.760857 282.952911,87.148392 274.020538,98.739914 
	C273.377686,99.574112 273.876648,102.294746 274.779877,103.145912 
	C279.660431,107.745087 284.973175,111.885727 289.851837,116.486710 
	C292.290558,118.786652 293.822388,118.093315 295.523865,115.955635 
	C302.004944,107.813042 308.500153,99.681625 314.958740,91.521210 
	C328.778259,74.060349 342.549652,56.561325 356.399078,39.124226 
	C362.733307,31.149090 360.174774,23.187309 355.810730,19.372902 
	C349.337372,13.714828 343.539124,12.464004 335.981232,20.588167 
	C332.768677,24.041433 329.966187,27.876198 326.449829,32.039627 
M244.316299,133.038696 
	C227.032883,141.659653 209.809921,150.404694 192.447906,158.864319 
	C177.137497,166.324295 161.826996,173.641449 150.936615,187.520889 
	C143.946136,196.430008 140.373718,206.393478 141.158768,217.700592 
	C141.240509,218.878021 143.456696,220.771790 144.770889,220.850067 
	C150.580933,221.196136 156.434052,221.195862 162.247238,220.877167 
	C163.932434,220.784775 165.932312,219.576523 167.118073,218.271271 
	C181.930069,201.966660 196.456497,185.400284 211.394241,169.213028 
	C221.853989,157.878357 232.841415,147.031052 243.555511,135.929733 
	C244.185364,135.277130 244.478271,134.299332 244.316299,133.038696 
M211.500000,438.000000 
	C224.160370,438.000000 236.825394,437.804291 249.478668,438.103699 
	C254.046219,438.211792 256.180725,435.705566 255.940536,430.656647 
	C255.715195,425.919739 255.025803,421.204865 254.655914,417.603149 
	C213.613388,422.815826 172.379791,422.936310 131.000000,417.349915 
	C131.000000,421.383911 130.987030,426.043579 131.003189,430.703156 
	C131.024597,436.872192 132.178055,437.995331 138.535965,437.997192 
	C162.523972,438.004211 186.511993,438.000000 211.500000,438.000000 
M222.010040,178.483810 
	C208.897354,192.310471 195.784668,206.137131 182.671982,219.963791 
	C192.078079,220.999954 200.397934,221.130737 208.706421,220.881805 
	C210.238373,220.835922 212.336472,219.630035 213.140289,218.323868 
	C226.776703,196.165192 240.264832,173.915115 253.744003,151.659958 
	C255.956833,148.006424 257.971588,144.232941 260.077911,140.514893 
	C259.631134,140.196182 259.184326,139.877457 258.737549,139.558746 
	C246.665848,152.367661 234.594162,165.176590 222.010040,178.483810 
M263.476257,162.022827 
	C251.619583,181.795151 239.762894,201.567459 227.510925,221.998978 
	C236.147903,221.998978 244.071365,222.195221 251.967163,221.816086 
	C253.370422,221.748703 255.493546,219.487946 255.869217,217.904343 
	C259.097443,204.296387 262.027008,190.617035 264.989380,176.946777 
	C266.528290,169.845062 267.953461,162.718719 269.430023,155.603500 
	C268.954407,155.439804 268.478790,155.276108 268.003174,155.112427 
	C266.670807,157.238235 265.338440,159.364044 263.476257,162.022827 
z"/>
<path fill="#FFFFFF" opacity="1.000000" stroke="none" 
	d="
M383.048065,222.891815 
	C381.363892,222.594559 379.680054,222.040390 377.995453,222.037918 
	C343.680267,221.987381 309.364929,222.006149 275.049652,221.983292 
	C273.173065,221.982040 271.296570,221.738876 268.780487,221.563812 
	C275.324463,192.281799 281.694061,163.780060 288.196930,134.681961 
	C300.514374,138.275116 304.123474,127.637085 309.833710,121.133621 
	C318.716949,111.016388 326.659668,100.073868 335.012054,89.489861 
	C344.675720,77.244247 354.257843,64.932518 364.063599,52.801620 
	C368.571259,47.225086 372.318848,41.512398 374.318726,34.408009 
	C377.413910,23.412752 370.698578,12.493567 364.286194,7.152958 
	C361.413055,4.760035 357.600525,3.495047 354.107117,1.359105 
	C364.315521,1.000000 374.631012,1.000000 385.000000,1.000000 
	C385.000000,75.020889 385.000000,149.041779 384.709900,223.491821 
	C383.962555,223.577896 383.505310,223.234863 383.048065,222.891815 
z"/>
<path fill="#FFFFFF" opacity="1.000000" stroke="none" 
	d="
M1.000000,271.468658 
	C3.730401,273.270905 6.194644,275.739044 10.416931,275.250671 
	C11.428416,275.133667 13.586187,277.925751 13.874524,279.609711 
	C18.085773,304.205078 26.997244,326.845947 40.914692,347.603180 
	C56.439919,370.758362 76.715340,388.698608 100.523911,402.830383 
	C104.774002,405.353027 109.388275,407.272217 113.877502,409.378143 
	C116.620102,410.664703 118.222954,412.294983 118.084229,415.730804 
	C117.802399,422.711426 118.130104,429.714478 117.962494,436.702454 
	C117.802788,443.361267 120.543137,447.932495 126.907135,450.653961 
	C85.060120,451.000000 43.120243,451.000000 1.000000,451.000000 
	C1.000000,391.312561 1.000000,331.624939 1.000000,271.468658 
z"/>
<path fill="#FFFFFF" opacity="1.000000" stroke="none" 
	d="
M261.468658,451.000000 
	C269.040192,445.465088 270.530975,437.375885 270.046021,428.376831 
	C269.786774,423.566406 269.777161,418.713654 270.140472,413.916748 
	C270.244873,412.538696 271.764740,410.700745 273.104431,410.070892 
	C286.621490,403.715698 299.185333,395.881531 310.397247,386.023438 
	C316.967896,380.246216 323.405426,374.270935 329.451202,367.952576 
	C344.252747,352.483704 355.555908,334.612030 362.820862,314.533508 
	C367.111389,302.675690 369.593903,290.168823 373.111877,278.018250 
	C373.469055,276.784698 375.215240,275.623962 376.576050,275.089752 
	C378.487000,274.339600 380.640839,274.208282 383.145081,273.365234 
	C384.066223,272.612091 384.533112,272.306030 385.000000,272.000000 
	C385.000000,331.580414 385.000000,391.160828 385.000000,451.000000 
	C343.979462,451.000000 302.958405,451.000000 261.468658,451.000000 
z"/>
<path fill="#040707" opacity="1.000000" stroke="none" 
	d="
M385.000000,271.531311 
	C384.533112,272.306030 384.066223,272.612091 383.322449,273.014557 
	C382.697479,271.682709 382.054413,270.255951 382.046997,268.825928 
	C381.973755,254.729019 381.992462,240.631516 382.038605,226.534348 
	C382.041748,225.580200 382.477325,224.627457 382.879944,223.282928 
	C383.505310,223.234863 383.962555,223.577896 384.709900,223.960480 
	C385.000000,239.687561 385.000000,255.375122 385.000000,271.531311 
z"/>
<path fill="#000000" opacity="1.000000" stroke="none" 
	d="
M72.038834,131.000000 
	C68.896301,131.000000 66.248550,131.000000 63.202045,131.000000 
	C63.202045,142.252762 63.202045,153.327988 63.202045,164.699341 
	C59.745392,164.699341 56.672783,164.699341 53.197617,164.699341 
	C53.197617,153.753265 53.197617,142.673584 53.197617,131.196854 
	C42.077274,131.196854 31.335524,131.196854 20.299229,131.196854 
	C20.299229,128.073929 20.299229,125.334534 20.299229,122.196304 
	C30.910599,122.196304 41.658367,122.196304 52.801674,122.196304 
	C52.801674,110.409966 52.801674,99.001518 52.801674,87.298798 
	C56.256145,87.298798 59.331394,87.298798 62.805809,87.298798 
	C62.805809,98.583839 62.805809,109.996658 62.805809,121.806458 
	C73.926247,121.806458 84.668045,121.806458 95.702545,121.806458 
	C95.702545,124.929451 95.702545,127.668762 95.702545,131.000000 
	C88.067131,131.000000 80.300369,131.000000 72.038834,131.000000 
z"/>
<path fill="#FFFFFF" opacity="1.000000" stroke="none" 
	d="
M252.000000,275.000000 
	C286.152191,275.000000 319.804474,275.040802 353.456390,274.945343 
	C357.402008,274.934113 359.300903,275.029877 358.155090,280.202087 
	C354.093414,298.536316 348.629578,316.379913 338.180725,332.051300 
	C330.724030,343.235016 322.707550,354.359741 313.262512,363.838409 
	C293.226501,383.945618 269.597687,398.624390 241.425430,404.738525 
	C235.245438,406.079773 228.825012,406.804413 222.501480,406.900269 
	C204.013702,407.180634 185.518311,407.093292 167.027023,406.975891 
	C144.938873,406.835632 124.955185,399.719330 106.065369,388.662018 
	C93.319572,381.201172 81.705635,372.336090 71.430916,361.834076 
	C50.507851,340.448181 36.489544,315.180756 30.005455,285.865570 
	C29.622492,284.134155 29.624748,282.256836 28.943613,280.662872 
	C26.442867,274.810638 30.000538,274.960938 34.093498,274.963745 
	C106.562309,275.013763 179.031158,275.000000 252.000000,275.000000 
z"/>
<path fill="#FFFFFF" opacity="1.000000" stroke="none" 
	d="
M190.000000,236.000000 
	C250.809158,236.000000 311.118317,236.000000 371.998474,236.000000 
	C371.998474,243.811783 372.202972,251.423874 371.767792,258.999207 
	C371.705811,260.077515 368.611511,261.601929 366.794281,261.808624 
	C364.291107,262.093353 361.667694,261.041168 359.095581,261.040100 
	C246.598190,260.993591 134.100784,261.000061 21.603365,260.999817 
	C15.001934,260.999786 15.001279,260.998535 15.000213,254.549576 
	C14.999385,249.549683 14.768980,244.531555 15.160879,239.562546 
	C15.260825,238.295288 17.205744,236.989304 18.558374,236.081772 
	C19.248053,235.619034 20.503984,236.000031 21.503962,236.000031 
	C77.502640,236.000000 133.501328,236.000000 190.000000,236.000000 
z"/>
<path fill="#FFFFFF" opacity="1.000000" stroke="none" 
	d="
M326.713593,31.788601 
	C329.966187,27.876198 332.768677,24.041433 335.981232,20.588167 
	C343.539124,12.464004 349.337372,13.714828 355.810730,19.372902 
	C360.174774,23.187309 362.733307,31.149090 356.399078,39.124226 
	C342.549652,56.561325 328.778259,74.060349 314.958740,91.521210 
	C308.500153,99.681625 302.004944,107.813042 295.523865,115.955635 
	C293.822388,118.093315 292.290558,118.786652 289.851837,116.486710 
	C284.973175,111.885727 279.660431,107.745087 274.779877,103.145912 
	C273.876648,102.294746 273.377686,99.574112 274.020538,98.739914 
	C282.952911,87.148392 292.149231,75.760857 301.215179,64.271477 
	C309.667542,53.559727 318.041412,42.786041 326.713593,31.788601 
z"/>
<path fill="#FFFFFF" opacity="1.000000" stroke="none" 
	d="
M244.622147,133.255798 
	C244.478271,134.299332 244.185364,135.277130 243.555511,135.929733 
	C232.841415,147.031052 221.853989,157.878357 211.394241,169.213028 
	C196.456497,185.400284 181.930069,201.966660 167.118073,218.271271 
	C165.932312,219.576523 163.932434,220.784775 162.247238,220.877167 
	C156.434052,221.195862 150.580933,221.196136 144.770889,220.850067 
	C143.456696,220.771790 141.240509,218.878021 141.158768,217.700592 
	C140.373718,206.393478 143.946136,196.430008 150.936615,187.520889 
	C161.826996,173.641449 177.137497,166.324295 192.447906,158.864319 
	C209.809921,150.404694 227.032883,141.659653 244.622147,133.255798 
z"/>
<path fill="#FFFFFF" opacity="1.000000" stroke="none" 
	d="
M211.000000,438.000000 
	C186.511993,438.000000 162.523972,438.004211 138.535965,437.997192 
	C132.178055,437.995331 131.024597,436.872192 131.003189,430.703156 
	C130.987030,426.043579 131.000000,421.383911 131.000000,417.349915 
	C172.379791,422.936310 213.613388,422.815826 254.655914,417.603149 
	C255.025803,421.204865 255.715195,425.919739 255.940536,430.656647 
	C256.180725,435.705566 254.046219,438.211792 249.478668,438.103699 
	C236.825394,437.804291 224.160370,438.000000 211.000000,438.000000 
z"/>
<path fill="#FFFFFF" opacity="1.000000" stroke="none" 
	d="
M222.266251,178.234650 
	C234.594162,165.176590 246.665848,152.367661 258.737549,139.558746 
	C259.184326,139.877457 259.631134,140.196182 260.077911,140.514893 
	C257.971588,144.232941 255.956833,148.006424 253.744003,151.659958 
	C240.264832,173.915115 226.776703,196.165192 213.140289,218.323868 
	C212.336472,219.630035 210.238373,220.835922 208.706421,220.881805 
	C200.397934,221.130737 192.078079,220.999954 182.671982,219.963791 
	C195.784668,206.137131 208.897354,192.310471 222.266251,178.234650 
z"/>
<path fill="#FFFFFF" opacity="1.000000" stroke="none" 
	d="
M263.741180,161.756332 
	C265.338440,159.364044 266.670807,157.238235 268.003174,155.112427 
	C268.478790,155.276108 268.954407,155.439804 269.430023,155.603500 
	C267.953461,162.718719 266.528290,169.845062 264.989380,176.946777 
	C262.027008,190.617035 259.097443,204.296387 255.869217,217.904343 
	C255.493546,219.487946 253.370422,221.748703 251.967163,221.816086 
	C244.071365,222.195221 236.147903,221.998978 227.510925,221.998978 
	C239.762894,201.567459 251.619583,181.795151 263.741180,161.756332 
z"/>
</svg>