<?xml version="1.0" encoding="UTF-8"?>
<svg id="Layer_1" xmlns="http://www.w3.org/2000/svg" version="1.1" viewBox="0 0 612 792">
  <!-- Generator: Adobe Illustrator 29.3.1, SVG Export Plug-In . SVG Version: 2.1.0 Build 151)  -->
  <path d="M327.68,227.15c-.57,3.56-2.14,6.42-4.19,9.33,4.3,1.33,8.64,1.49,12.87,2.13,18.3,2.8,35.33,9.14,51.56,17.91,18.84,10.18,34.9,23.66,48.24,40.34,16.77,20.96,27.73,44.69,32.96,71.04,1.89,9.54,3.47,19.13,3.62,28.89.06,3.66.6,4.12,4.22,4.13,6.87.01,13.75-.05,20.62.01,6.46.06,8.6,2.25,8.61,8.64,0,7.67.02,15.34,0,23.01-.02,4.63-1.85,6.78-6.37,7.49-1.17.19-2.38.25-3.56.25-100.8.03-201.6.05-302.4.08-25.8,0-51.59.05-77.39.06-5.56,0-8.09-1.53-9.49-5.52-.37-1.07-.42-2.14-.42-3.23,0-7.27-.02-14.54,0-21.81.01-6.08,2.56-8.81,8.65-8.93,6.97-.13,13.94-.03,20.92-.05,3.9-.01,4.36-.4,4.47-4.18.43-15.99,3.27-31.58,8.07-46.8,6.58-20.86,17.13-39.52,31.07-56.38,24.16-29.23,55.44-46.25,92.1-54.08,5.97-1.28,12.09-1.85,18.43-2.79-.85-1.33-1.53-2.4-2.21-3.47-8.35-13.13-1.17-30.78,13.95-34.26,12.32-2.84,25.78,7.59,26.1,20.23.07,2.58.29,5.17-.4,7.96M450.73,353.55c-9.27-27.8-25.13-51.17-47.76-69.74-24.43-20.04-52.88-30.54-84.14-33.18-15.68-1.33-31.36-.2-46.81,3.4-44.71,10.44-77.73,35.98-99.38,76.37-9.79,18.27-15.52,37.81-17.72,58.37-.42,3.88-1.32,7.84-.49,12.14,1.82,0,3.59,0,5.36,0,66.91,0,133.82.02,200.74.03,32.06,0,64.12-.02,96.19.03,1.8,0,2.66-.45,2.44-2.32-.19-1.67-.46-3.34-.56-5.02-.8-13.56-3.48-26.75-7.87-40.09M187.12,426.36c99.6,0,199.2,0,298.8,0q6.13,0,6.14-6.2,0-4.74-4.63-4.74c-119.92,0-239.83,0-359.75,0-7.1,0-6.97,0-7.14,7.1-.07,2.97.74,3.92,3.83,3.9,20.72-.14,41.43-.07,62.75-.07M312.69,224.55c.21-.45.46-.88.62-1.34,1.32-3.72-.42-7.91-3.91-9.45-3.39-1.49-7.56-.09-9.53,3.22-2.01,3.37-1.19,7.37,2.01,9.76,3.21,2.39,7.02,1.73,10.8-2.17Z"/>
  <path d="M482.58,466.77c1.34,1.78,2.26,3.54,2.9,5.44,1.39,4.11.57,7.59-2.68,10.22-11.08,8.98-21.12,19.09-31.62,28.7-16.59,15.2-33.18,30.38-50.92,44.26-9,7.04-19.26,9.9-30.29,11.28-11.61,1.45-23.16,3.45-34.76,5.04-9.05,1.24-18.12,2.23-27.19,3.29-18.9,2.21-37.13-2.29-55.46-5.67-12.18-2.24-24.14-6-36.69-5.65-8.57.24-16.92,2.1-25.25,4.03-1.8.41-1.79,1.53-1.79,2.87,0,5.68.01,11.35,0,17.03-.02,4.61-1.83,6.72-6.4,7.42-.98.15-1.98.17-2.98.17-15.14,0-30.28.01-45.42-.02-6-.01-7.73-1.67-8.5-7.54-.34-2.59-.28-5.17-.28-7.75,0-36.45.02-72.91.04-109.36,0-9.58,1.72-11.28,11.31-11.28,14.64,0,29.28,0,43.92,0,6.09,0,8.29,2.21,8.3,8.22,0,2.85,0,5.69,0,8.95,5.26-2.61,10-5.05,14.83-7.34,12.7-6.02,25.74-11.13,39.63-13.71,4.58-.85,9.2-1.54,13.9-1.52,24,.11,48,.18,72.01.22,6.07.01,12.15-.25,18.22-.17,9.98.13,18,6,20.32,14.97,2.09,8.11-.96,14.92-6.27,20.77-9.09,10.03-20.65,14.69-34.09,15.49-9.05.54-18.04-.51-27.21-.22,4.6,1.23,9.2,1.05,13.75,1.1,13.03.14,26.05-.04,39.04-1.16,5.94-.52,11.94-.47,17.85-1.19,6.45-.79,11.48-4.87,16.64-8.37,17.3-11.76,34.81-23.17,53.35-32.92,5.83-3.06,11.8-5.66,18.54-6.16,9.64-.71,17.28,2.78,23.25,10.57M285.79,497.12c5.31-4.99,11.94-6.22,18.8-6.06,8.47.19,16.91.19,25.24-1.4,8.33-1.58,16.19-4.28,21.82-11.21,3.45-4.24,2.36-7.72-2.86-9.39-1.58-.51-3.18-.59-4.72-.33-2.98.5-5.96.36-8.94.4-23.4.33-46.79-.63-70.19-.59-4.88,0-9.78-.1-14.58.79-21.03,3.92-40.75,11.32-59.02,22.51-1.82,1.11-2.57,2.45-2.55,4.61.08,11.55.04,23.11.04,34.66,0,6.67.05,13.35-.03,20.02-.03,2.21.68,2.89,2.85,2.17,1.69-.56,3.47-.85,5.22-1.21,9.96-2.09,20.04-3.44,30.16-1.79,13.21,2.16,26.33,4.87,39.51,7.25,9.57,1.72,19.12,3.68,28.88,3.86,7.06.13,14.05-1.02,21.05-1.77,7.49-.81,14.98-1.64,22.45-2.68,10.02-1.39,20-3.02,30-4.48,7.3-1.06,14.52-2.09,20.64-6.86,13.13-10.22,25.68-21.12,37.98-32.31,10.76-9.77,21.33-19.75,31.99-29.64,3.4-3.16,6.81-6.3,10.28-9.51-2.08-2.52-4.44-3.69-7.41-3.78-3.48-.11-6.68.91-9.8,2.26-10.81,4.7-20.65,11.17-30.82,17.03-10.96,6.32-21.05,13.99-31.77,20.7-6.04,3.78-12.35,7.18-19.53,7.71-12.68.92-25.38,1.5-38.09,1.86-15.52.43-30.96-1.21-46.42-2.25-3.75-.25-6.16-2.02-7.7-5.19-1.53-3.16-1.09-6.2,1.12-8.93,1.82-2.25,3.83-4.32,6.39-6.44M170.88,581.15c3.92-.03,3.95-.03,3.96-3.96.02-32.85.04-65.69.03-98.54,0-1.64.4-3.34-.26-5.1-.98-.06-1.86-.15-2.73-.15-9.85-.01-19.71.08-29.56-.07-2.9-.05-3.72.9-3.71,3.75.09,32.75.06,65.49.08,98.24,0,1.86-.05,3.74.56,5.83,10.39,0,20.73,0,31.63,0Z"/>
  <path d="M248.36,277.03c2.83-.89,5.25-2.37,8.26-1.43,3.06.96,4.76,2.93,5.03,5.96.26,2.84-1.19,5.01-3.73,6.26-5.09,2.5-10.21,4.95-14.98,8.05-20.19,13.11-33.57,31.64-42.67,53.57-3.55,8.55-6.32,17.35-8.07,26.47-.81,4.24-3.56,5.99-7.83,5.46-3.3-.41-5.3-3.14-4.95-7.27.82-9.68,3.52-18.95,7.09-27.91,9.13-22.91,23.06-42.4,42.26-57.98,5.84-4.74,12.42-8.25,19.6-11.16Z"/>
  <path d="M158.27,255.09h-8.84v33.7h-10v-33.5h-32.9v-9h32.5v-34.9h10v34.51h32.9v9.19h-23.66Z"/>
</svg>