<svg version="1.1" id="Layer_1" xmlns="http://www.w3.org/2000/svg" xmlns:xlink="http://www.w3.org/1999/xlink" x="0px" y="0px"
	 width="100%" viewBox="0 0 356 380" enable-background="new 0 0 356 380" xml:space="preserve">
<path fill="#FFFFFF" opacity="1.000000" stroke="none" 
	d="
M1.000000,3.000000 
	C1.332937,2.333333 1.547184,1.216295 2.022783,1.090956 
	C3.113251,0.803574 4.331222,1.000000 5.497427,1.000000 
	C122.617706,1.000000 239.737991,1.000000 356.929138,1.000000 
	C356.929138,127.569260 356.929138,254.138580 356.929138,381.000000 
	C239.644196,381.000000 122.288139,381.000000 4.413581,380.584473 
	C3.596389,377.881836 3.038391,375.594910 3.036751,373.307617 
	C2.989916,307.985870 2.998973,242.664108 2.998968,177.342346 
	C2.998964,126.351387 3.019293,75.360390 2.914774,24.369640 
	C2.911103,22.578459 1.666326,20.789824 1.000000,19.000000 
	C1.000000,18.555555 1.000000,18.111111 1.396648,17.246935 
	C2.195476,13.502560 2.818802,10.182455 2.887174,6.850960 
	C2.913242,5.580752 1.666612,4.284424 1.000000,3.000000 
M123.500000,126.930916 
	C99.758797,126.930916 76.017593,126.930916 52.318630,126.930916 
	C52.318630,131.125504 52.318630,134.682297 52.318630,138.269165 
	C95.380295,138.269165 138.071259,138.269165 180.728378,138.269165 
	C180.728378,134.341324 180.728378,130.771576 180.728378,126.930885 
	C161.751404,126.930885 143.125702,126.930885 123.500000,126.930916 
M51.996719,191.458649 
	C51.996719,193.199173 51.996719,194.939697 51.996719,196.623871 
	C95.424019,196.623871 138.015121,196.623871 180.823914,196.623871 
	C180.823914,192.772430 180.823914,189.196671 180.823914,185.377075 
	C137.851379,185.377075 95.132050,185.377075 51.958775,185.377075 
	C51.958775,187.274231 51.958775,188.899948 51.996719,191.458649 
M72.500183,255.069092 
	C108.564835,255.069092 144.629486,255.069092 180.757446,255.069092 
	C180.757446,250.920914 180.757446,247.364059 180.757446,243.682709 
	C137.729263,243.682709 95.025162,243.682709 52.280899,243.682709 
	C52.280899,247.566971 52.280899,251.142685 52.280899,255.069107 
	C58.906723,255.069107 65.203568,255.069107 72.500183,255.069092 
M164.498749,79.339035 
	C169.910065,79.339035 175.321396,79.339035 180.792587,79.339035 
	C180.792587,75.181175 180.792587,71.766106 180.792587,68.326614 
	C137.720642,68.326614 94.916443,68.326614 52.329872,68.326614 
	C52.329872,72.181953 52.329872,75.612343 52.329872,79.339325 
	C89.625648,79.339325 126.562294,79.339325 164.498749,79.339035 
M95.500076,302.658142 
	C81.107315,302.658142 66.714554,302.658142 51.927353,302.658142 
	C52.113728,306.802643 52.266407,310.197784 52.429504,313.824524 
	C95.490128,313.824524 138.014053,313.824524 180.663361,313.824524 
	C180.663361,310.031036 180.663361,306.480865 180.663361,302.657867 
	C152.384537,302.657867 124.442307,302.657867 95.500076,302.658142 
M285.500000,255.069092 
	C293.577179,255.069092 301.654327,255.069092 309.623535,255.069092 
	C309.623535,250.816345 309.623535,247.266022 309.623535,243.678299 
	C282.225067,243.678299 255.201767,243.678299 227.923798,243.678299 
	C227.923798,247.561432 227.923798,251.144180 227.923798,255.069107 
	C246.949936,255.069107 265.724976,255.069107 285.500000,255.069092 
M236.549652,185.101273 
	C233.769867,185.101273 230.990082,185.101273 228.093445,185.101273 
	C228.093445,189.290634 228.093445,192.863220 228.093445,196.589661 
	C255.470078,196.589661 282.534271,196.589661 309.704712,196.589661 
	C309.704712,192.700806 309.704712,189.124420 309.704712,185.101318 
	C285.458649,185.101318 261.498901,185.101318 236.549652,185.101273 
M244.502518,302.496185 
	C239.053406,302.496185 233.604294,302.496185 227.710037,302.496185 
	C227.893036,306.679688 228.047882,310.219757 228.191467,313.502380 
	C255.720627,313.502380 282.601654,313.502380 309.680450,313.502380 
	C309.680450,309.689514 309.680450,306.286713 309.680450,302.496765 
	C288.084961,302.496765 266.793396,302.496765 244.502518,302.496185 
M227.998642,68.690819 
	C227.998642,72.117035 227.998642,75.543243 227.998642,78.996391 
	C255.533707,78.996391 282.565552,78.996391 309.733307,78.996391 
	C309.733307,75.233299 309.733307,71.815704 309.733307,68.056190 
	C282.571564,68.056190 255.650955,68.056190 227.998642,68.690819 
M254.500000,138.097473 
	C272.741730,138.097473 290.983459,138.097473 309.598877,138.097473 
	C309.598877,134.213486 309.598877,130.826019 309.598877,127.271225 
	C282.375671,127.271225 255.223328,127.271225 228.222656,127.271225 
	C228.222656,131.005875 228.222656,134.404144 228.222656,138.097504 
	C236.924667,138.097504 245.212341,138.097504 254.500000,138.097473 
z"/>
<path fill="#F6F5F3" opacity="1.000000" stroke="none" 
	d="
M1.000000,19.468658 
	C1.666326,20.789824 2.911103,22.578459 2.914774,24.369640 
	C3.019293,75.360390 2.998964,126.351387 2.998968,177.342346 
	C2.998973,242.664108 2.989916,307.985870 3.036751,373.307617 
	C3.038391,375.594910 3.596389,377.881836 3.947540,380.584473 
	C3.001200,381.000000 2.002399,381.000000 1.001799,381.000000 
	C1.000000,260.645782 1.000000,140.291550 1.000000,19.468658 
z"/>
<path fill="#F6F5F3" opacity="1.000000" stroke="none" 
	d="
M1.000000,3.464651 
	C1.666612,4.284424 2.913242,5.580752 2.887174,6.850960 
	C2.818802,10.182455 2.195476,13.502560 1.396648,16.913601 
	C1.000000,12.643101 1.000000,8.286201 1.000000,3.464651 
z"/>
<path fill="#6C6C6C" opacity="1.000000" stroke="none" 
	d="
M124.000000,126.930901 
	C143.125702,126.930885 161.751404,126.930885 180.728378,126.930885 
	C180.728378,130.771576 180.728378,134.341324 180.728378,138.269165 
	C138.071259,138.269165 95.380295,138.269165 52.318630,138.269165 
	C52.318630,134.682297 52.318630,131.125504 52.318630,126.930916 
	C76.017593,126.930916 99.758797,126.930916 124.000000,126.930901 
z"/>
<path fill="#6B6B6B" opacity="1.000000" stroke="none" 
	d="
M51.977745,190.992157 
	C51.958775,188.899948 51.958775,187.274231 51.958775,185.377075 
	C95.132050,185.377075 137.851379,185.377075 180.823914,185.377075 
	C180.823914,189.196671 180.823914,192.772430 180.823914,196.623871 
	C138.015121,196.623871 95.424019,196.623871 51.996719,196.623871 
	C51.996719,194.939697 51.996719,193.199173 51.977745,190.992157 
z"/>
<path fill="#6C6C6C" opacity="1.000000" stroke="none" 
	d="
M72.000298,255.069092 
	C65.203568,255.069107 58.906723,255.069107 52.280899,255.069107 
	C52.280899,251.142685 52.280899,247.566971 52.280899,243.682709 
	C95.025162,243.682709 137.729263,243.682709 180.757446,243.682709 
	C180.757446,247.364059 180.757446,250.920914 180.757446,255.069092 
	C144.629486,255.069092 108.564835,255.069092 72.000298,255.069092 
z"/>
<path fill="#666666" opacity="1.000000" stroke="none" 
	d="
M163.998840,79.339180 
	C126.562294,79.339325 89.625648,79.339325 52.329872,79.339325 
	C52.329872,75.612343 52.329872,72.181953 52.329872,68.326614 
	C94.916443,68.326614 137.720642,68.326614 180.792587,68.326614 
	C180.792587,71.766106 180.792587,75.181175 180.792587,79.339035 
	C175.321396,79.339035 169.910065,79.339035 163.998840,79.339180 
z"/>
<path fill="#676767" opacity="1.000000" stroke="none" 
	d="
M96.000076,302.658020 
	C124.442307,302.657867 152.384537,302.657867 180.663361,302.657867 
	C180.663361,306.480865 180.663361,310.031036 180.663361,313.824524 
	C138.014053,313.824524 95.490128,313.824524 52.429504,313.824524 
	C52.266407,310.197784 52.113728,306.802643 51.927353,302.658142 
	C66.714554,302.658142 81.107315,302.658142 96.000076,302.658020 
z"/>
<path fill="#6C6C6C" opacity="1.000000" stroke="none" 
	d="
M285.000000,255.069092 
	C265.724976,255.069107 246.949936,255.069107 227.923798,255.069107 
	C227.923798,251.144180 227.923798,247.561432 227.923798,243.678299 
	C255.201767,243.678299 282.225067,243.678299 309.623535,243.678299 
	C309.623535,247.266022 309.623535,250.816345 309.623535,255.069092 
	C301.654327,255.069092 293.577179,255.069092 285.000000,255.069092 
z"/>
<path fill="#6B6B6B" opacity="1.000000" stroke="none" 
	d="
M237.044388,185.101288 
	C261.498901,185.101318 285.458649,185.101318 309.704712,185.101318 
	C309.704712,189.124420 309.704712,192.700806 309.704712,196.589661 
	C282.534271,196.589661 255.470078,196.589661 228.093445,196.589661 
	C228.093445,192.863220 228.093445,189.290634 228.093445,185.101273 
	C230.990082,185.101273 233.769867,185.101273 237.044388,185.101288 
z"/>
<path fill="#696969" opacity="1.000000" stroke="none" 
	d="
M245.002167,302.496460 
	C266.793396,302.496765 288.084961,302.496765 309.680450,302.496765 
	C309.680450,306.286713 309.680450,309.689514 309.680450,313.502380 
	C282.601654,313.502380 255.720627,313.502380 228.191467,313.502380 
	C228.047882,310.219757 227.893036,306.679688 227.710037,302.496185 
	C233.604294,302.496185 239.053406,302.496185 245.002167,302.496460 
z"/>
<path fill="#666666" opacity="1.000000" stroke="none" 
	d="
M228.364502,68.373505 
	C255.650955,68.056190 282.571564,68.056190 309.733307,68.056190 
	C309.733307,71.815704 309.733307,75.233299 309.733307,78.996391 
	C282.565552,78.996391 255.533707,78.996391 227.998642,78.996391 
	C227.998642,75.543243 227.998642,72.117035 228.364502,68.373505 
z"/>
<path fill="#666666" opacity="1.000000" stroke="none" 
	d="
M254.000000,138.097488 
	C245.212341,138.097504 236.924667,138.097504 228.222656,138.097504 
	C228.222656,134.404144 228.222656,131.005875 228.222656,127.271225 
	C255.223328,127.271225 282.375671,127.271225 309.598877,127.271225 
	C309.598877,130.826019 309.598877,134.213486 309.598877,138.097473 
	C290.983459,138.097473 272.741730,138.097473 254.000000,138.097488 
z"/>
</svg>