<svg version="1.1" id="Layer_1" xmlns="http://www.w3.org/2000/svg" xmlns:xlink="http://www.w3.org/1999/xlink" x="0px" y="0px"
	 width="100%" viewBox="0 0 1024 1024" enable-background="new 0 0 1024 1024" xml:space="preserve">
<path fill="#000000" opacity="1.000000" stroke="none" 
	d="
M410.301697,469.648376 
	C426.623505,484.953583 433.394318,503.387421 430.548676,525.263184 
	C429.798248,531.031860 430.256989,531.627747 436.588745,531.628418 
	C553.906250,531.640381 671.223694,531.643433 788.541199,531.650146 
	C790.374146,531.650269 792.217102,531.554138 794.038208,531.706909 
	C799.174255,532.137512 803.142456,536.000427 803.292053,541.137085 
	C804.469421,581.556641 799.094666,620.763611 781.268372,657.587158 
	C763.002502,695.318909 735.758423,725.388306 702.206177,750.074951 
	C677.770142,768.054077 651.224243,782.145142 622.994019,793.105042 
	C620.093994,794.230896 619.286377,795.814148 619.308533,798.670898 
	C619.405212,811.168457 619.356567,823.667236 619.345642,836.165527 
	C619.336975,846.133789 615.161499,850.308044 605.015991,850.317871 
	C571.853821,850.349915 538.691589,850.338318 505.529419,850.339478 
	C467.201263,850.340881 428.873138,850.351501 390.544983,850.328735 
	C379.095306,850.321960 374.981171,846.084106 375.007355,834.569275 
	C375.035034,822.404419 374.842407,810.234680 375.150726,798.077393 
	C375.240814,794.523560 373.935120,793.137390 370.912384,791.989990 
	C347.319763,783.035034 324.952972,771.672119 303.884979,757.741821 
	C264.699524,731.832031 233.677048,698.657776 213.339294,656.018921 
	C202.580841,633.463440 196.426193,609.618713 193.466980,584.812134 
	C191.966553,572.234314 191.482941,559.629272 190.869919,547.022949 
	C190.320221,535.718750 194.558197,531.646606 205.888428,531.644287 
	C237.550812,531.637695 269.213196,531.637573 300.875580,531.626465 
	C307.972626,531.623962 307.864044,531.481323 307.156860,524.660950 
	C303.192230,486.422821 328.239868,457.703949 362.820923,454.554626 
	C380.676819,452.928497 396.316376,458.036865 410.301697,469.648376 
M581.500000,776.764832 
	C587.499695,776.760193 593.501526,776.853027 599.498352,776.719482 
	C604.116455,776.616699 608.740173,777.276245 613.310242,775.469910 
	C631.780457,768.169739 649.713257,759.793152 666.720337,749.504639 
	C702.459534,727.884155 732.945862,700.871826 754.480957,664.532959 
	C769.213867,639.672241 777.865417,612.807495 781.563110,584.279968 
	C782.779785,574.893555 783.605469,565.452576 783.708618,555.956604 
	C783.746460,552.465698 782.522034,551.018677 779.062561,551.355164 
	C777.742188,551.483521 776.398071,551.364075 775.064819,551.364136 
	C663.068787,551.367554 551.072754,551.374451 439.076691,551.374634 
	C365.412659,551.374756 291.748596,551.365601 218.084549,551.359680 
	C211.337082,551.359131 211.340195,551.355652 211.346680,558.281189 
	C211.358368,570.784607 213.016083,583.117493 215.274033,595.378967 
	C223.619019,640.695190 244.412186,679.361938 277.674500,711.216187 
	C307.733551,740.002808 343.151337,760.133301 381.801575,774.957031 
	C384.980927,776.176392 388.111420,776.790588 391.506836,776.788330 
	C454.504547,776.746155 517.502258,776.760925 581.500000,776.764832 
M466.500000,829.809998 
	C508.983368,829.807068 551.466858,829.755005 593.949829,829.877625 
	C598.171936,829.889771 599.958740,828.881836 599.741577,824.312134 
	C599.394104,816.998169 599.513428,809.652161 599.704102,802.326721 
	C599.795959,798.798645 598.867920,797.282471 594.978149,797.288147 
	C530.003784,797.382690 465.029175,797.379639 400.054779,797.284912 
	C396.207275,797.279297 395.196655,798.732727 395.292511,802.298889 
	C395.489471,809.624023 395.599304,816.969849 395.258087,824.284424 
	C395.046478,828.820374 396.761383,829.905396 401.026031,829.870911 
	C422.516113,829.696838 444.008453,829.801758 466.500000,829.809998 
M400.285583,488.221466 
	C388.526733,475.702301 374.044769,471.125458 357.666107,475.718750 
	C342.192902,480.058136 331.875824,490.515045 328.057648,506.503357 
	C326.381622,513.521545 327.197418,520.731323 327.500488,527.856995 
	C327.619904,530.665344 329.454102,531.679504 332.277252,531.671387 
	C356.570618,531.601257 380.864655,531.564026 405.157501,531.696228 
	C408.651947,531.715210 410.156525,530.044617 410.417664,527.121399 
	C411.658539,513.231628 410.932770,499.782440 400.285583,488.221466 
z"/>
<path fill="#000000" opacity="1.000000" stroke="none" 
	d="
M781.773071,105.615082 
	C821.289246,94.236938 860.402710,82.911781 899.533325,71.646164 
	C903.671753,70.454727 907.659790,68.634781 912.074890,68.488289 
	C918.408203,68.278122 921.723755,70.638512 923.282349,76.787094 
	C937.845703,134.237640 952.399475,191.690628 966.916565,249.152878 
	C969.479187,259.296265 966.904663,263.385437 956.091248,266.421112 
	C921.689514,276.078827 887.288208,285.738953 852.856934,295.290619 
	C820.991394,304.130585 789.081848,312.812073 757.211182,321.633606 
	C754.736938,322.318420 752.282776,322.391602 749.795715,322.360962 
	C743.568909,322.284302 739.862488,318.738953 739.708435,312.490814 
	C739.520325,304.861450 739.858154,297.234741 740.745789,288.684540 
	C735.423157,290.476685 730.804993,292.035919 726.183777,293.586273 
	C722.720032,294.748352 719.339478,296.166351 715.636597,296.523071 
	C709.193237,297.143829 704.902649,294.245300 703.702026,287.949646 
	C701.747314,277.700226 700.000488,267.411224 698.119690,256.880280 
	C694.126343,256.557892 690.767273,258.627136 687.207397,259.643433 
	C680.661133,261.512329 674.325562,264.083557 667.637268,265.510315 
	C659.880676,267.164948 654.686768,264.333130 652.914124,256.834045 
	C645.350647,224.837341 637.874878,192.819641 630.490417,160.781174 
	C628.698792,153.008209 631.418213,148.915192 639.111389,146.702454 
	C685.902954,133.244141 732.691772,119.776512 779.480530,106.308395 
	C780.119019,106.124611 780.744080,105.893974 781.773071,105.615082 
M772.017883,296.331512 
	C773.459229,295.938263 774.902527,295.551880 776.341675,295.150757 
	C831.224915,279.853882 886.096802,264.516296 941.012573,249.337204 
	C945.104004,248.206284 945.680237,246.513474 944.691101,242.639572 
	C932.201416,193.724518 919.848389,144.774506 907.535522,95.814537 
	C906.629517,92.211861 905.367432,91.086685 901.364136,92.248383 
	C820.144775,115.817047 738.884155,139.243378 657.606201,162.609375 
	C653.609863,163.758255 652.897522,165.591919 653.898865,169.496338 
	C656.990723,181.552841 659.636353,193.723068 662.534485,205.830170 
	C665.503052,218.231873 668.565063,230.611237 671.546204,242.836288 
	C673.571716,243.250504 674.909363,242.521255 676.323792,242.091003 
	C684.910034,239.479187 693.468567,236.763351 702.114197,234.362991 
	C710.663879,231.989288 716.195374,235.755096 717.362183,244.397720 
	C717.716797,247.024506 717.918396,249.676926 718.384888,252.282715 
	C719.626282,259.216705 719.789551,266.359344 722.052673,273.360107 
	C723.666626,272.931427 724.935242,272.605164 726.197876,272.257294 
	C733.566467,270.227264 740.497131,266.766357 748.076965,265.448456 
	C754.980957,264.248016 759.401978,267.272675 760.704651,274.075409 
	C761.622070,278.866760 761.134521,283.689697 760.670532,288.499359 
	C760.340393,291.921356 759.925842,295.355652 760.841675,298.838989 
	C764.674500,298.916901 767.872131,297.339172 772.017883,296.331512 
z"/>
<path fill="#000000" opacity="1.000000" stroke="none" 
	d="
M547.046143,272.674255 
	C552.383606,272.478790 557.163025,273.098267 561.789429,274.533142 
	C571.082947,277.415558 575.365234,285.397827 572.764221,294.809021 
	C571.134827,300.705017 568.222473,305.958160 563.853943,310.200714 
	C541.959167,331.464172 518.317810,350.443024 489.485626,361.420929 
	C438.986603,380.648438 391.479462,374.602966 347.962128,342.212067 
	C336.375702,333.588043 326.695831,322.943085 323.356812,308.050171 
	C321.624359,300.322906 322.734406,292.779480 325.226898,285.479156 
	C326.431671,281.950439 325.518768,280.206909 322.619354,278.165741 
	C314.549835,272.484802 307.558807,265.551056 301.130127,258.080139 
	C297.738495,254.138626 295.123383,249.666641 293.362518,244.767242 
	C291.256592,238.907700 293.419983,233.698654 298.698792,231.482590 
	C304.144836,229.196304 309.347198,231.111206 311.934631,236.754013 
	C317.059845,247.931305 326.204681,255.403900 335.407562,262.877258 
	C337.308441,264.420837 338.692261,264.052856 340.643097,262.674377 
	C360.531403,248.621262 378.618805,248.880035 398.630402,263.253235 
	C415.252289,275.191803 433.566559,283.547516 453.854065,286.232788 
	C467.547302,288.045227 481.366180,286.833008 494.908905,283.181335 
	C510.132751,279.076385 525.466187,275.346619 541.095337,273.039612 
	C542.899048,272.773346 544.744690,272.790710 547.046143,272.674255 
M525.369812,316.846710 
	C534.417908,309.502838 543.943054,302.657837 551.356445,292.933441 
	C548.418030,292.092834 546.316711,292.521332 544.164673,292.802429 
	C528.796753,294.809814 513.932678,299.079773 498.996948,302.958435 
	C484.354980,306.760803 469.481110,308.928162 454.529968,306.975983 
	C428.661499,303.598267 405.180908,293.741150 384.179077,278.180206 
	C376.129089,272.215759 367.693726,270.624268 358.535278,275.453979 
	C349.209747,280.371796 344.468536,288.318146 343.360413,298.600464 
	C342.465424,306.904785 346.761047,313.060333 352.301788,318.342743 
	C382.955170,347.567047 419.457672,356.680969 460.532990,349.039886 
	C484.874786,344.511658 505.602722,332.364655 525.369812,316.846710 
z"/>
<path fill="#000000" opacity="1.000000" stroke="none" 
	d="
M488.882538,427.892212 
	C509.042786,408.462646 528.915161,389.256989 548.845398,370.111542 
	C555.351624,363.861511 563.510620,364.780975 567.422241,372.763336 
	C574.096924,386.384338 579.353027,400.394958 579.465820,416.051300 
	C579.642273,440.553741 569.837585,460.240631 551.812988,476.070709 
	C524.075256,500.431274 482.106018,501.858154 454.261963,479.715515 
	C447.975494,474.716278 447.650055,467.836975 453.463928,462.196991 
	C465.174255,450.836853 476.898590,439.491180 488.882538,427.892212 
M544.240723,402.740662 
	C539.584778,407.378998 534.928833,412.017303 529.645691,417.280457 
	C539.664246,421.389923 548.643433,425.073029 558.293213,429.031189 
	C560.908997,416.230408 560.268188,404.730682 554.421204,392.663971 
	C550.813110,396.229767 547.774475,399.232880 544.240723,402.740662 
M494.994232,475.507782 
	C498.636322,475.596680 502.289276,476.024414 505.893677,475.074860 
	C507.417450,474.673492 509.063446,474.163666 508.532166,472.197205 
	C506.180145,463.491150 503.319336,454.955872 500.184998,446.722839 
	C492.293915,454.753418 484.820648,462.358765 477.142365,470.172760 
	C481.680511,473.728760 488.090393,473.984161 494.994232,475.507782 
M527.748108,466.034088 
	C528.625305,467.334412 529.746643,467.041168 530.802551,466.395782 
	C538.528076,461.673462 545.243469,455.921356 550.187561,447.691498 
	C539.486023,443.278809 529.269836,439.066284 517.689636,434.291290 
	C521.243835,445.610504 524.356140,455.522308 527.748108,466.034088 
z"/>
<path fill="#000000" opacity="1.000000" stroke="none" 
	d="
M308.587555,96.596130 
	C320.677612,84.436539 335.217377,77.955223 351.770050,77.990707 
	C386.728790,78.065643 410.490784,103.555717 413.487640,132.877640 
	C416.971832,166.967865 392.329041,193.705902 364.523956,198.819260 
	C331.688385,204.857681 299.265259,183.877563 292.712280,150.172119 
	C288.756104,129.823395 294.198486,112.007713 308.587555,96.596130 
M387.681152,158.152115 
	C403.307190,129.946640 380.765564,98.202896 351.677094,99.094002 
	C325.887238,99.884071 306.853271,124.792252 314.186981,149.280655 
	C319.189301,165.984039 330.744385,176.033310 347.616150,178.319183 
	C364.594147,180.619446 378.136108,173.543060 387.681152,158.152115 
z"/>
<path fill="#000000" opacity="1.000000" stroke="none" 
	d="
M304.684875,387.312805 
	C311.118713,393.862122 317.358490,400.113617 323.475159,406.483337 
	C329.055359,412.294403 329.062561,417.898071 323.452698,423.570587 
	C311.617462,435.537933 299.748444,447.472931 287.790527,459.317444 
	C281.854156,465.197510 275.241302,465.227234 269.338898,459.333496 
	C248.230026,438.255890 227.211823,417.087463 206.173706,395.939056 
	C204.882980,394.641632 203.659378,393.267212 202.501907,391.849121 
	C198.285873,386.683960 198.165009,381.311584 202.877808,376.648102 
	C215.313400,364.342560 227.881653,352.165771 240.612747,340.166534 
	C246.310440,334.796356 252.053513,335.413879 258.170258,341.431641 
	C273.612000,356.623474 289.017273,371.852417 304.684875,387.312805 
M234.627869,374.132294 
	C232.312286,376.291443 230.142151,378.639252 227.645737,380.563843 
	C224.232391,383.195404 223.953659,385.258575 227.304367,388.436249 
	C234.555466,395.312744 241.357773,402.659668 248.447006,409.710236 
	C258.346222,419.555359 268.339813,429.305511 278.365662,439.167755 
	C286.408173,430.977448 294.502533,422.734344 302.144684,414.951752 
	C284.392426,397.139923 266.463470,379.150848 247.004364,359.626434 
	C243.111481,364.221405 239.122116,368.930206 234.627869,374.132294 
z"/>
<path fill="#000000" opacity="1.000000" stroke="none" 
	d="
M553.357178,133.171082 
	C560.227295,128.087830 565.270203,128.327271 570.922241,133.909317 
	C580.514893,143.383163 590.068420,152.896957 599.597046,162.435181 
	C604.895569,167.738983 604.978760,173.895493 599.878906,179.099594 
	C584.268677,195.029007 568.408691,210.722931 553.130981,226.964737 
	C546.560486,233.949905 537.901855,234.040115 531.475708,227.300964 
	C522.748901,218.149063 513.546143,209.452835 504.713043,200.399658 
	C497.625519,193.135498 497.754700,187.765060 505.218933,180.864532 
	C521.726624,165.603500 537.275146,149.382889 553.357178,133.171082 
M525.404236,189.693573 
	C523.636169,191.768295 525.317749,193.045074 526.562683,194.309830 
	C530.408875,198.217331 534.472900,201.922714 538.148621,205.981598 
	C540.763916,208.869476 542.568726,208.327423 545.037964,205.806686 
	C554.456238,196.192169 563.999451,186.698807 573.585999,177.251495 
	C575.559631,175.306503 577.920288,173.754257 579.599670,172.420425 
	C572.951111,165.597977 567.327454,159.827194 561.435364,153.780991 
	C549.455994,165.455505 538.621948,178.306534 525.404236,189.693573 
z"/>
<path fill="#000000" opacity="1.000000" stroke="none" 
	d="
M664.989258,347.971344 
	C657.839844,337.930115 660.165588,326.269318 669.852966,322.009064 
	C676.550415,319.063721 684.781494,321.222900 689.040222,327.042358 
	C693.598328,333.270874 693.322510,341.319092 688.346008,347.304718 
	C683.834595,352.730743 675.327332,354.330444 668.846863,350.876648 
	C667.548706,350.184723 666.443604,349.130707 664.989258,347.971344 
z"/>
<path fill="#000000" opacity="1.000000" stroke="none" 
	d="
M647.480835,410.516907 
	C641.749878,415.482239 635.688660,415.709656 629.619629,412.509674 
	C624.063660,409.580109 621.923950,404.395264 622.398499,398.296173 
	C622.896240,391.899078 626.285889,387.479248 632.413452,385.322266 
	C638.360291,383.228912 645.694458,385.569244 649.285217,390.662537 
	C653.742126,396.984222 653.226440,403.586609 647.480835,410.516907 
z"/>
<path fill="#000000" opacity="1.000000" stroke="none" 
	d="
M632.952637,362.352051 
	C623.694031,361.796082 617.643738,355.660828 617.754395,347.381866 
	C617.860474,339.446259 624.480713,332.829712 632.457092,332.687469 
	C639.992981,332.553040 646.747375,338.322540 647.320496,345.383575 
	C648.114441,355.163849 643.127258,361.235229 632.952637,362.352051 
z"/>
<path fill="#000000" opacity="1.000000" stroke="none" 
	d="
M636.650330,303.301453 
	C636.411560,295.138245 639.069458,290.648163 644.987183,288.779938 
	C650.351562,287.086456 656.629578,289.154297 659.466431,293.732635 
	C662.369141,298.417175 662.237366,303.299744 659.392334,307.888519 
	C656.548462,312.475403 652.016785,314.002350 646.851013,313.265015 
	C641.328430,312.476746 637.942017,309.139099 636.650330,303.301453 
z"/>
<path fill="#000000" opacity="1.000000" stroke="none" 
	d="
M689.508362,306.863892 
	C681.844116,308.877808 675.723755,306.067352 673.874390,300.015961 
	C671.945007,293.702759 674.740112,287.872009 680.835815,285.494110 
	C686.179871,283.409424 692.140076,285.558838 694.931030,290.577209 
	C698.127380,296.324524 696.255127,302.274933 689.508362,306.863892 
z"/>
<path fill="#000000" opacity="1.000000" stroke="none" 
	d="
M672.552734,425.160461 
	C666.057617,425.182312 661.801575,422.706665 660.075378,418.211212 
	C658.433594,413.935669 659.759949,408.194702 663.049133,405.339294 
	C666.478149,402.362488 672.159302,401.746704 676.171021,403.950836 
	C680.276367,406.206451 682.021912,410.076233 681.868103,414.370789 
	C681.669250,419.922272 678.377686,423.546783 672.552734,425.160461 
z"/>
<path fill="#000000" opacity="1.000000" stroke="none" 
	d="
M638.318970,484.229218 
	C631.460388,489.440857 624.109253,488.663025 620.456970,482.669922 
	C616.968140,476.944977 618.744446,469.920013 624.466919,466.811279 
	C628.843872,464.433502 634.824402,465.368164 638.208679,468.959015 
	C642.151001,473.141937 642.259705,477.779633 638.318970,484.229218 
z"/>
<path fill="#000000" opacity="1.000000" stroke="none" 
	d="
M668.545410,385.533539 
	C661.461365,383.385712 658.356445,378.371826 659.743591,371.857971 
	C660.786987,366.957886 666.297913,363.122009 671.383118,363.756226 
	C677.241333,364.486847 681.724060,369.810608 681.306641,375.541473 
	C680.838379,381.970978 676.468750,385.524750 668.545410,385.533539 
z"/>
<path fill="#000000" opacity="1.000000" stroke="none" 
	d="
M640.146790,454.344116 
	C634.795471,451.440918 632.774597,447.113647 633.924194,441.679016 
	C634.857056,437.269257 637.840515,434.342407 642.449097,433.746246 
	C647.158325,433.137054 651.532837,433.995911 653.987854,438.654907 
	C656.253845,442.955292 656.250122,447.383331 653.034546,451.219757 
	C649.738403,455.152374 645.477051,456.397003 640.146790,454.344116 
z"/>
<path fill="#000000" opacity="1.000000" stroke="none" 
	d="
M702.228760,334.078735 
	C703.457703,327.666534 706.311035,324.342010 711.064148,323.748749 
	C715.710815,323.168793 719.749878,324.442444 722.030884,328.801666 
	C724.268188,333.077209 724.283813,337.525421 720.968384,341.305664 
	C718.331665,344.312073 714.857788,345.865417 710.733948,344.768311 
	C705.488647,343.372864 702.638428,339.894409 702.228760,334.078735 
z"/>
<path fill="#000000" opacity="1.000000" stroke="none" 
	d="
M692.178833,364.293579 
	C696.422974,360.314728 700.857910,359.537628 705.659302,362.194092 
	C709.569092,364.357330 711.144714,368.048798 710.806763,372.242767 
	C710.408142,377.188995 707.460999,380.423859 702.600586,381.726379 
	C698.234558,382.896393 694.757263,381.244293 692.073914,377.931458 
	C688.567993,373.602966 688.962219,369.078552 692.178833,364.293579 
z"/>
</svg>