<svg version="1.1" id="Layer_1" xmlns="http://www.w3.org/2000/svg" xmlns:xlink="http://www.w3.org/1999/xlink" x="0px" y="0px"
	 width="100%" viewBox="0 0 1024 1024" enable-background="new 0 0 1024 1024" xml:space="preserve">
<path fill="#000000" opacity="1.000000" stroke="none" 
	d="
M715.893188,108.922516 
	C723.136597,99.980751 729.717163,90.953529 737.672180,83.063568 
	C755.569397,65.312889 782.906372,65.363579 800.739136,83.260208 
	C820.506287,103.098183 821.199463,126.157234 803.013550,148.961945 
	C771.043335,189.051804 739.218079,229.257202 707.308655,269.395569 
	C702.753113,275.125977 698.099792,280.779755 693.432495,286.419952 
	C686.892700,294.322968 682.705933,295.368652 671.774231,291.502167 
	C670.016235,298.544739 668.185242,305.513855 666.541626,312.526855 
	C658.967712,344.843353 651.181152,377.112762 644.694641,409.673645 
	C642.976746,418.297333 641.377319,426.944794 639.631531,435.562714 
	C639.066589,438.351654 639.889587,439.741425 642.845215,439.647064 
	C644.343323,439.599243 645.844482,439.650055 647.344238,439.650055 
	C705.003174,439.649353 762.662170,439.644592 820.321106,439.649841 
	C830.352844,439.650757 833.336487,442.658051 833.343811,452.792267 
	C833.358521,473.289520 833.352478,493.786804 833.342041,514.284058 
	C833.337646,522.936096 829.197693,527.175720 820.639221,527.342957 
	C813.496460,527.482544 813.643494,527.508484 812.382324,534.669739 
	C806.094421,570.373047 794.261475,604.046509 775.645142,635.274780 
	C750.680054,677.152710 716.691467,710.152039 676.066345,736.570129 
	C666.306824,742.916687 656.075317,748.598145 645.161438,752.791687 
	C641.231628,754.301697 639.975037,756.600159 640.032043,760.681458 
	C640.199707,772.674805 640.389404,784.692566 639.815186,796.664490 
	C639.296875,807.470337 635.053650,816.418945 623.921509,820.362793 
	C619.990845,821.755310 615.873596,822.351318 611.700439,822.352112 
	C546.209229,822.364746 480.717957,822.364502 415.226715,822.362976 
	C411.044708,822.362854 406.920898,821.808655 402.967377,820.464966 
	C392.922913,817.051208 387.793884,810.086609 387.679169,799.470703 
	C387.542328,786.810303 387.516357,774.147034 387.631836,761.486633 
	C387.671844,757.100891 386.089050,754.710754 381.845001,752.877502 
	C358.767761,742.909119 337.930481,729.214661 318.479065,713.398987 
	C293.629700,693.194580 271.996918,669.985291 254.786865,642.919128 
	C233.737717,609.815247 220.162827,573.754883 213.565399,535.083252 
	C212.279083,527.543335 212.360092,527.529541 204.522751,527.344666 
	C196.883072,527.164551 192.679062,522.870544 192.667252,515.056213 
	C192.635513,494.059052 192.646545,473.061798 192.663437,452.064606 
	C192.670685,443.071228 196.055618,439.655090 204.984222,439.652252 
	C268.142426,439.632324 331.300659,439.626648 394.458862,439.615723 
	C395.625366,439.615540 396.794373,439.555084 397.957886,439.611969 
	C402.150177,439.816864 403.755859,438.074890 403.726501,433.677551 
	C403.434723,389.992676 424.730865,358.550140 460.208130,335.470612 
	C489.497131,316.416901 521.769775,303.083313 553.008301,287.780334 
	C575.153625,276.931915 596.676941,264.918365 618.353882,253.190948 
	C619.490295,252.576141 620.815369,252.098343 621.364075,250.778320 
	C621.601074,249.378815 620.520020,248.628250 619.953552,247.656052 
	C615.914795,240.724884 616.070251,236.106903 621.045654,229.754105 
	C635.409363,211.413971 649.895569,193.169769 664.281738,174.847137 
	C681.443420,152.989578 698.551270,131.089722 715.893188,108.922516 
M442.184601,747.650574 
	C451.237488,749.090637 460.330109,749.733459 469.513275,749.695557 
	C498.506073,749.575806 527.500488,749.520752 556.492676,749.699768 
	C576.665588,749.824280 596.203430,746.262939 615.272522,740.078796 
	C650.261719,728.731750 680.420349,709.162170 707.298279,684.445068 
	C731.535217,662.156677 751.261658,636.325928 766.069580,606.814880 
	C777.944763,583.148499 785.703308,558.158630 790.490845,532.183960 
	C791.106018,528.846558 790.077942,526.999939 786.361633,527.348267 
	C785.205688,527.456604 784.030518,527.358032 782.864136,527.358032 
	C644.062927,527.357300 505.261688,527.357239 366.460449,527.356201 
	C324.636810,527.355835 282.813080,527.379700 240.989578,527.307617 
	C237.002808,527.300781 235.095825,527.495178 235.943634,532.777527 
	C238.962646,551.587646 244.260300,569.687134 251.191635,587.360840 
	C264.021545,620.074890 283.330322,648.585999 307.845856,673.583069 
	C330.405365,696.585754 356.000580,715.472595 385.143372,729.463074 
	C403.094421,738.080750 421.777466,744.271729 442.184601,747.650574 
M661.500061,461.340057 
	C584.014160,461.341339 506.528229,461.343323 429.042328,461.343658 
	C359.555054,461.343933 290.067657,461.393372 220.580750,461.236572 
	C215.509155,461.225128 213.940247,462.636688 214.121948,467.723358 
	C214.490479,478.041138 214.215652,488.382080 214.196411,498.713470 
	C214.182755,506.057220 214.175735,506.062439 221.736465,506.062469 
	C379.873901,506.063477 538.011353,506.049683 696.148804,506.073120 
	C733.472168,506.078644 770.795776,506.159515 808.118530,506.356628 
	C811.914185,506.376678 812.672302,504.636414 812.663330,501.513519 
	C812.631775,490.515656 812.668762,479.517609 812.663147,468.519653 
	C812.659546,461.377228 812.646667,461.352936 805.473938,461.351440 
	C757.815979,461.341461 710.158081,461.342743 661.500061,461.340057 
M692.911194,174.390305 
	C677.372986,193.935059 661.899780,213.532196 646.232910,232.973282 
	C643.606201,236.232758 643.343994,238.172104 646.871948,240.991898 
	C656.620178,248.783264 666.160461,256.844055 675.580933,265.030823 
	C678.704102,267.744995 680.621582,267.597961 683.174133,264.348694 
	C696.433594,247.469864 709.905090,230.757767 723.212769,213.916565 
	C744.473938,187.010178 765.292419,159.743164 787.019165,133.219345 
	C800.815796,116.376579 790.553833,99.522110 775.407898,92.967690 
	C769.865173,90.569054 764.925354,91.469673 759.734314,94.317963 
	C751.333923,98.927307 746.394287,106.754097 740.716736,113.849709 
	C724.799683,133.742050 709.117676,153.822342 692.911194,174.390305 
M597.184570,296.676147 
	C600.698914,292.568542 604.213196,288.460968 607.727539,284.353363 
	C606.704895,284.114319 606.129822,284.361237 605.581848,284.658417 
	C569.590881,304.178955 532.334961,321.192841 495.961578,339.962799 
	C477.657257,349.408539 460.101959,359.705444 446.041504,375.054291 
	C431.127502,391.335022 423.329285,410.333527 423.951904,432.653076 
	C424.090576,437.623840 425.806915,439.247131 430.789246,439.072449 
	C440.935730,438.716736 451.103577,438.958435 461.262543,438.979889 
	C463.646637,438.984924 465.775299,438.795624 467.477600,436.638763 
	C482.022125,418.210815 498.031555,401.071747 513.936890,383.832794 
	C541.022522,354.476135 568.193542,325.206146 597.184570,296.676147 
M605.511780,766.316345 
	C590.555664,769.624023 575.485046,771.548828 560.101135,771.442505 
	C527.298218,771.215759 494.492615,771.346619 461.688141,771.382202 
	C450.349152,771.394470 439.179169,769.977173 428.105652,767.688354 
	C421.828003,766.390808 415.581573,764.942322 408.343170,763.346130 
	C408.343170,771.553955 408.404633,779.138672 408.329315,786.722046 
	C408.205048,799.231567 407.580353,801.528015 423.447083,801.578735 
	C483.726807,801.771301 544.007507,801.658325 604.287842,801.663940 
	C606.784668,801.664185 609.239624,801.130188 611.682190,800.942505 
	C616.843994,800.545776 617.810303,797.714661 617.895325,793.254333 
	C618.063049,784.458740 617.033936,775.636230 618.504517,766.858459 
	C618.925293,764.346985 617.710632,763.010315 614.974060,763.766785 
	C612.091370,764.563721 609.211792,765.371887 605.511780,766.316345 
M561.776794,410.343964 
	C589.016846,365.633362 615.477234,320.444519 643.776855,276.318237 
	C594.756714,331.099792 541.669556,382.078918 493.079803,437.520569 
	C495.137695,439.140411 496.675751,439.031219 498.132599,439.038971 
	C512.623596,439.116211 527.115601,439.092072 541.605286,439.266907 
	C544.337158,439.299866 545.374756,437.720703 546.513428,435.808990 
	C551.453613,427.514526 556.437134,419.245819 561.776794,410.343964 
M634.231262,330.639496 
	C612.553467,366.564178 590.875732,402.488831 568.924194,438.867157 
	C570.688965,439.304840 571.306091,439.590363 571.923889,439.591644 
	C585.907532,439.621216 599.891418,439.575317 613.874695,439.656647 
	C617.166016,439.675781 618.141052,437.738434 618.620911,435.040680 
	C623.501099,407.604492 630.486450,380.620575 636.195007,353.361633 
	C638.881226,340.534912 641.840698,327.765411 644.676331,314.969971 
	C644.410889,314.877075 644.145447,314.784149 643.880005,314.691254 
	C640.792969,319.801361 637.705933,324.911499 634.231262,330.639496 
z"/>
</svg>