<svg version="1.1" id="Layer_1" xmlns="http://www.w3.org/2000/svg" xmlns:xlink="http://www.w3.org/1999/xlink" x="0px" y="0px"
	 width="100%" viewBox="0 0 1024 1024" enable-background="new 0 0 1024 1024" xml:space="preserve">
<path fill="#000000" opacity="1.000000" stroke="none" 
	d="
M271.013794,535.008057 
	C310.786896,497.380859 357.207275,473.626770 411.347534,464.200165 
	C393.037354,429.387299 397.087646,399.320251 431.795258,378.184509 
	C452.531555,365.556824 477.680603,370.747955 495.176727,387.550629 
	C511.126099,402.867889 522.218689,433.767548 501.898987,464.224731 
	C520.183350,467.583801 537.617859,473.171509 554.791260,479.466339 
	C556.116150,476.805481 555.623657,474.606445 555.624512,472.491821 
	C555.654480,400.326935 555.647400,328.162018 555.650513,255.997131 
	C555.651062,243.224197 560.257263,238.649170 573.120667,238.648697 
	C647.785522,238.645935 722.450317,238.645508 797.115173,238.661194 
	C799.930969,238.661774 802.716858,238.588303 805.520874,239.446426 
	C812.546997,241.596664 815.601685,245.657898 815.336121,253.060226 
	C815.096680,259.735107 811.398560,264.052979 804.539551,265.452698 
	C802.601257,265.848236 800.586670,266.036804 798.606934,266.037720 
	C728.442078,266.070312 658.277283,266.069244 588.112427,266.072845 
	C586.308655,266.072937 584.504883,266.072876 583.115601,266.072876 
	C581.513062,267.835144 582.030457,269.407349 582.029480,270.848450 
	C581.982422,342.679840 581.995239,414.511292 581.853821,486.342468 
	C581.844849,490.897675 583.319153,493.344971 587.376343,495.689270 
	C639.338562,525.713745 677.879944,568.020508 701.747070,623.157654 
	C710.610107,643.632812 715.824036,665.338013 719.416260,687.399536 
	C720.860596,696.269836 722.248047,705.122253 722.315430,714.120117 
	C722.337646,717.084045 723.877075,717.677124 726.431763,717.742249 
	C732.248596,717.890503 738.135620,716.958984 743.874756,718.217590 
	C763.097717,722.433411 774.914856,739.000061 773.288574,759.199585 
	C771.168457,785.533020 752.021057,809.038574 726.600281,816.454346 
	C722.440247,817.667908 718.194946,818.363342 713.825500,818.363037 
	C542.663025,818.351379 371.500153,818.554321 200.338684,818.148132 
	C175.846710,818.089966 158.637344,803.880493 147.278305,782.916138 
	C139.818787,769.148743 136.683731,754.448364 143.515152,739.334717 
	C149.877228,725.259399 161.007538,717.996216 176.541656,717.715088 
	C179.873840,717.654724 183.211426,717.603760 186.540131,717.724609 
	C189.533966,717.833313 190.610550,716.468872 190.801956,713.574280 
	C191.623550,701.149170 193.172989,688.826111 195.475464,676.564087 
	C198.924728,658.194458 204.011795,640.360413 211.192230,623.105835 
	C225.068649,589.760864 244.781342,560.386169 271.013794,535.008057 
M679.496582,717.715271 
	C683.163147,717.714050 686.861938,717.405823 690.488403,717.786438 
	C695.444641,718.306641 696.085388,715.798035 695.506958,711.842163 
	C693.804199,700.196106 692.103394,688.560364 689.683167,677.024780 
	C681.967712,640.250427 667.221680,606.758545 643.430481,577.504822 
	C621.596619,550.657898 595.293274,529.287781 564.401855,513.575073 
	C515.202393,488.550110 463.415833,480.311554 409.373535,491.813721 
	C352.822540,503.849915 305.384216,531.824097 268.782379,577.190247 
	C248.831787,601.917969 235.014954,629.802490 226.663437,660.337952 
	C222.327209,676.192566 219.623077,692.422302 218.263428,708.847412 
	C217.529602,717.712341 217.424805,717.706970 226.501297,717.707153 
	C377.166809,717.709961 527.832275,717.712036 679.496582,717.715271 
M706.387207,791.693054 
	C726.972351,791.642700 741.902039,779.380249 745.868286,759.265259 
	C747.808105,749.427612 744.344360,745.119751 734.454285,745.120056 
	C562.310120,745.126099 390.165924,745.135620 218.021729,745.145813 
	C204.190262,745.146667 190.358307,745.093323 176.527527,745.194824 
	C170.206879,745.241150 167.487976,748.099487 167.191360,754.361816 
	C166.940887,759.649719 168.075592,764.706116 170.496811,769.294434 
	C177.993759,783.501770 189.356689,791.702820 205.980667,791.699890 
	C372.458984,791.670593 538.937317,791.683838 706.387207,791.693054 
M454.885712,458.581116 
	C470.937805,459.810059 489.260315,443.625519 485.555237,424.060974 
	C483.129639,411.252777 475.171173,403.056854 462.644928,399.713257 
	C452.109009,396.900940 439.323456,402.670227 432.404388,412.784760 
	C425.906921,422.283051 425.851746,434.606537 432.384003,444.713562 
	C437.478241,452.595673 445.024261,456.721985 454.885712,458.581116 
z"/>
<path fill="#000000" opacity="1.000000" stroke="none" 
	d="
M660.000122,136.648193 
	C732.158325,136.647934 803.816589,136.646545 875.474792,136.649414 
	C886.659363,136.649857 890.347595,140.366440 890.347717,151.639664 
	C890.350159,367.114258 890.350769,582.588806 890.348572,798.063416 
	C890.348450,809.630676 886.627625,813.408203 875.229065,813.411011 
	C849.398804,813.417358 823.568481,813.421997 797.738220,813.397949 
	C790.362183,813.391052 785.695007,809.852905 784.760254,803.696533 
	C783.702637,796.730042 787.645874,789.978088 794.189819,787.939148 
	C797.029968,787.054260 799.971497,786.620300 803.024719,786.636536 
	C821.022095,786.731934 839.020203,786.698181 857.018066,786.673645 
	C858.817383,786.671204 860.678650,787.035461 862.301636,786.220337 
	C863.306152,785.370728 863.084351,784.331421 863.084290,783.348938 
	C863.068359,590.038879 863.052734,396.728851 863.033508,203.418823 
	C863.032471,192.587082 863.011841,181.755310 862.981750,170.923615 
	C862.962830,164.129791 862.783142,163.921783 855.962830,163.920929 
	C805.968750,163.914673 755.974670,163.936584 705.980591,163.932343 
	C629.156372,163.925842 552.332153,163.946716 475.508209,163.785004 
	C471.068909,163.775665 470.335907,165.322281 470.342316,169.237762 
	C470.437469,227.230743 470.404327,285.223907 470.391174,343.217041 
	C470.389252,351.703583 469.731537,352.341034 461.285095,352.347137 
	C457.618896,352.349792 453.952545,352.352905 450.286499,352.327393 
	C446.006897,352.297607 443.898224,350.008820 443.684143,345.843201 
	C443.615753,344.513214 443.651245,343.177460 443.651215,341.844360 
	C443.649994,278.518494 443.648224,215.192627 443.651917,151.866760 
	C443.652557,140.613846 447.650726,136.655029 459.025482,136.654083 
	C525.850342,136.648514 592.675171,136.649597 660.000122,136.648193 
z"/>
<path fill="#000000" opacity="1.000000" stroke="none" 
	d="
M713.000000,426.292419 
	C687.362061,426.295380 662.224182,426.285034 637.086243,426.311401 
	C631.904419,426.316833 627.101074,425.374786 623.641785,421.107819 
	C620.129578,416.775452 619.116089,411.914429 621.317749,406.670441 
	C623.696045,401.005585 628.461243,398.634491 634.208557,397.806915 
	C635.189087,397.665680 636.203186,397.743164 637.201782,397.743195 
	C678.820862,397.743408 720.439880,397.723022 762.058960,397.772247 
	C768.861267,397.780304 775.140442,399.361786 778.175598,406.316498 
	C782.520020,416.271637 775.489929,426.159363 763.942017,426.261810 
	C747.129211,426.410950 730.314148,426.295044 713.000000,426.292419 
z"/>
<path fill="#000000" opacity="1.000000" stroke="none" 
	d="
M735.572754,325.776123 
	C740.521973,334.568878 732.071838,345.655640 722.001770,345.501343 
	C693.222229,345.060394 664.431641,345.359680 635.645386,345.327515 
	C626.566711,345.317383 620.673706,339.853241 620.676270,331.606567 
	C620.678833,323.303680 626.581421,317.691681 635.565796,317.678375 
	C664.185608,317.635925 692.805542,317.654114 721.425415,317.667816 
	C727.494934,317.670715 732.479858,319.704559 735.572754,325.776123 
z"/>
<path fill="#000000" opacity="1.000000" stroke="none" 
	d="
M649.002441,506.982361 
	C643.018066,506.851227 637.484375,507.130981 632.059631,506.489441 
	C624.100525,505.548187 619.054565,499.128021 619.697021,491.657471 
	C620.321655,484.394012 626.495361,478.748138 634.298706,478.688110 
	C648.948730,478.575348 663.600220,478.649628 678.251099,478.650269 
	C688.240356,478.650696 698.231628,478.537079 708.218018,478.707214 
	C714.318726,478.811157 719.299744,481.424957 721.827209,487.172760 
	C724.229614,492.636108 723.391113,497.912384 719.224976,502.381775 
	C715.491272,506.387299 710.499084,506.937225 705.441528,506.951569 
	C686.795044,507.004425 668.148438,506.977936 649.002441,506.982361 
z"/>
</svg>