<svg version="1.1" id="Layer_1" xmlns="http://www.w3.org/2000/svg" xmlns:xlink="http://www.w3.org/1999/xlink" x="0px" y="0px"
	 width="100%" viewBox="0 0 1024 1024" enable-background="new 0 0 1024 1024" xml:space="preserve">
<path fill="#000000" opacity="1.000000" stroke="none" 
	d="
M330.999878,900.381042 
	C287.999969,900.379211 245.500046,900.380249 203.000122,900.373108 
	C191.670074,900.371216 187.770721,896.508240 187.767090,885.058716 
	C187.745972,818.558838 187.760818,752.059021 187.759155,685.559143 
	C187.755295,531.226135 187.749268,376.893188 187.743057,222.560211 
	C187.742584,210.784454 190.226089,207.897827 201.794998,205.376694 
	C254.182648,193.960297 306.543213,182.419434 358.935181,171.022873 
	C407.275238,160.507675 455.656677,150.182663 503.994263,139.656219 
	C548.760986,129.907364 593.490479,119.987312 638.243408,110.174988 
	C653.816772,106.760437 669.409058,103.431404 684.997253,100.084702 
	C694.198303,98.109276 700.800659,102.118622 700.482178,112.458000 
	C699.979492,128.775848 700.352905,145.120499 700.342590,161.453796 
	C700.337708,169.214935 696.409729,174.152145 690.160950,174.299164 
	C683.764893,174.449646 679.164551,169.384644 679.031738,161.537552 
	C678.862549,151.540497 679.015198,141.538300 678.975037,131.538528 
	C678.966431,129.412384 679.360718,127.209320 677.890198,124.452652 
	C553.751221,151.279617 429.453644,178.140854 305.156097,205.002075 
	C316.834473,204.442978 328.489716,204.959869 340.139557,204.957565 
	C499.805878,204.926056 659.472229,204.940674 819.138550,204.978836 
	C821.953552,204.979523 824.791809,205.254593 827.578491,205.672821 
	C833.119080,206.504364 836.817322,210.519501 837.292786,216.065842 
	C837.434692,217.721252 837.347595,219.397202 837.347595,221.063736 
	C837.349548,442.563293 837.350769,664.062866 837.340149,885.562439 
	C837.339966,888.535034 837.703308,891.547852 836.105164,894.343506 
	C833.511047,898.881165 829.713196,900.462830 824.498047,900.452026 
	C767.498474,900.333862 710.498474,900.382019 653.498596,900.382263 
	C546.165710,900.382690 438.832794,900.381348 330.999878,900.381042 
M815.649353,393.500092 
	C815.648682,340.338623 815.650146,287.177124 815.644653,234.015656 
	C815.643982,227.534332 815.627075,227.473480 808.973694,227.442307 
	C789.664001,227.351837 770.357117,227.655640 751.043457,227.532928 
	C704.390930,227.236542 657.735291,227.407425 611.080872,227.446411 
	C514.597839,227.527039 418.114838,227.681442 321.631775,227.727142 
	C286.641754,227.743713 251.651642,227.527618 216.661499,227.453995 
	C214.537430,227.449524 212.333603,227.007309 209.986084,228.196671 
	C209.986084,230.555191 209.986038,233.020737 209.986069,235.486298 
	C209.989197,447.134491 209.991959,658.782654 209.996826,870.430847 
	C209.997009,878.626343 210.006409,878.612488 218.124146,878.612366 
	C414.773804,878.607910 611.423462,878.605408 808.073120,878.609863 
	C815.646118,878.610046 815.650330,878.643860 815.650330,870.959167 
	C815.650452,712.139465 815.649536,553.319824 815.649353,393.500092 
z"/>
<path fill="#000000" opacity="1.000000" stroke="none" 
	d="
M294.297607,572.000000 
	C294.298859,582.832336 294.342529,593.164978 294.285583,603.497009 
	C294.241150,611.563171 291.460754,614.284912 283.462677,614.322632 
	C283.296021,614.323364 283.129395,614.321716 282.962738,614.321960 
	C269.759186,614.341675 268.665070,613.260559 268.666138,600.240723 
	C268.669647,558.244690 268.666718,516.248596 268.675171,474.252563 
	C268.676819,466.158508 270.178345,464.679688 278.295868,464.654999 
	C294.834015,464.604675 294.883392,464.579681 302.337677,479.288025 
	C310.391968,495.180298 318.314056,511.139526 326.366455,527.032776 
	C327.556854,529.382202 329.147156,531.528992 330.830688,534.213318 
	C333.528442,531.362000 335.012634,528.232910 336.557556,525.200928 
	C345.330444,507.983276 354.166779,490.795410 362.680481,473.449677 
	C365.755066,467.185516 369.900299,463.727936 377.147247,464.598022 
	C379.775879,464.913605 382.474152,464.632324 385.140381,464.655090 
	C392.400238,464.717102 394.334717,466.615784 394.337280,473.816498 
	C394.351532,514.146057 394.347778,554.475586 394.349518,594.805115 
	C394.349670,598.471436 394.407288,602.139099 394.328278,605.803772 
	C394.213043,611.150146 391.356903,614.151306 385.994720,614.281189 
	C369.366028,614.683655 369.503815,613.610474 369.495087,598.679810 
	C369.481201,574.860840 368.963593,551.042175 369.495117,527.222229 
	C369.539185,525.247253 369.500946,523.270508 369.500946,520.798462 
	C367.060516,521.690735 366.696869,523.579590 365.936401,525.038269 
	C360.008362,536.408752 354.191376,547.837585 348.204376,559.176758 
	C346.265228,562.849487 344.133636,566.460144 341.720490,569.834961 
	C336.177399,577.587097 327.851807,577.836243 322.168365,570.182556 
	C314.804291,560.265564 309.380188,549.146606 303.446259,538.356384 
	C300.731110,533.419128 298.150391,528.407959 294.296692,523.577148 
	C294.296692,539.551453 294.296692,555.525696 294.297607,572.000000 
z"/>
<path fill="#000000" opacity="1.000000" stroke="none" 
	d="
M633.328125,511.000061 
	C633.328552,541.995972 633.337036,572.491821 633.323669,602.987671 
	C633.319885,611.655701 630.670959,614.278259 622.006348,614.311096 
	C620.006653,614.318665 618.002319,614.216187 616.008057,614.319031 
	C611.392456,614.557068 608.200256,612.555054 605.600281,608.755249 
	C592.970886,590.297607 582.226501,570.752808 571.936584,550.942322 
	C566.902588,541.250732 562.011169,531.485168 556.100159,521.956848 
	C556.100159,523.873352 556.099976,525.789795 556.100159,527.706299 
	C556.102783,552.536011 556.120117,577.365784 556.100830,602.195496 
	C556.093201,612.074341 553.846436,614.310364 544.127441,614.317444 
	C543.460876,614.317932 542.794312,614.317261 542.127747,614.315613 
	C532.018677,614.290527 529.746643,612.044312 529.745605,602.049622 
	C529.741028,559.888733 529.736511,517.727783 529.738953,475.566864 
	C529.739441,466.715515 531.784058,464.595184 540.550415,464.663574 
	C556.431274,464.787445 552.752380,462.552032 561.817993,477.107239 
	C575.569458,499.185730 586.895630,522.601868 598.693298,545.750000 
	C601.103882,550.479736 603.357117,555.309692 606.777039,559.950256 
	C608.101685,558.153259 607.626770,556.338257 607.628845,554.695374 
	C607.662292,528.199036 607.641602,501.702606 607.654175,475.206207 
	C607.658203,466.694519 609.711182,464.680450 618.260803,464.653015 
	C632.497620,464.607361 633.335999,465.437195 633.328369,479.504059 
	C633.322754,489.836060 633.327698,500.168060 633.328125,511.000061 
z"/>
<path fill="#000000" opacity="1.000000" stroke="none" 
	d="
M472.000061,464.698578 
	C480.665070,464.700562 488.830597,464.648285 496.994965,464.722870 
	C503.265503,464.780182 505.271393,466.877655 505.340149,473.201782 
	C505.374542,476.367432 505.393707,479.534698 505.332489,482.699554 
	C505.226929,488.159058 503.115082,490.598450 497.433807,490.829163 
	C489.946899,491.133148 482.440704,490.974274 474.942749,490.991455 
	C467.777588,491.007843 460.611206,491.072266 453.447693,490.963409 
	C449.625641,490.905304 448.074768,492.516785 448.144714,496.364105 
	C448.293091,504.526276 448.321686,512.696899 448.111908,520.856628 
	C448.009064,524.856567 449.661621,526.058716 453.451843,526.016663 
	C465.781067,525.879700 478.113068,525.947815 490.443695,526.001465 
	C499.275085,526.039856 501.336487,528.139221 501.348846,536.851501 
	C501.370483,552.107056 501.159912,552.312622 485.668701,552.311218 
	C475.004181,552.310242 464.337219,552.448914 453.676422,552.251282 
	C449.585388,552.175476 447.995331,553.551575 448.112946,557.722839 
	C448.338318,565.714905 448.442444,573.729248 448.087463,581.711792 
	C447.863464,586.749695 449.940674,587.919373 454.541290,587.839294 
	C467.867950,587.607239 481.201202,587.718384 494.531708,587.757690 
	C503.240540,587.783325 505.335602,589.960815 505.349365,598.736145 
	C505.373260,613.972717 505.034485,614.307312 489.590149,614.309204 
	C470.593994,614.311523 451.597778,614.332825 432.601654,614.307800 
	C424.314758,614.296936 421.857758,611.854187 421.852539,603.609009 
	C421.825348,560.617676 421.820251,517.626404 421.816437,474.635071 
	C421.815735,467.002411 424.052612,464.702087 431.508392,464.693176 
	C444.838898,464.677277 458.169495,464.695190 472.000061,464.698578 
z"/>
<path fill="#000000" opacity="1.000000" stroke="none" 
	d="
M747.542847,597.369263 
	C741.018066,607.815674 731.513855,613.158630 720.098450,615.300110 
	C709.823425,617.227539 699.520569,616.949829 689.448792,613.966858 
	C674.623657,609.576233 666.666931,598.491333 661.815552,584.687012 
	C659.042664,576.796692 657.832275,568.583008 657.836548,560.195435 
	C657.850708,532.210693 657.816772,504.226013 657.832642,476.241302 
	C657.838135,466.508698 659.756042,464.658325 669.579346,464.648834 
	C683.115234,464.635742 683.319397,464.633026 683.587708,478.065704 
	C684.123108,504.873932 684.201660,531.685486 683.515869,558.496521 
	C683.349243,565.009155 684.395142,571.435303 686.672180,577.546875 
	C689.889404,586.181702 697.462830,590.678467 708.146057,590.646790 
	C718.185181,590.617126 725.115295,586.156189 728.442566,577.435364 
	C730.966125,570.821106 731.538879,563.819824 731.578674,556.869690 
	C731.735962,529.385620 731.630310,501.900116 731.643616,474.415161 
	C731.647400,466.665619 733.605774,464.741699 741.403442,464.653107 
	C756.801086,464.478149 757.354370,465.036102 757.348816,480.495453 
	C757.339355,506.980988 757.387085,533.466614 757.318787,559.951965 
	C757.284851,573.112915 754.915771,585.723877 747.542847,597.369263 
z"/>
</svg>