<svg version="1.1" id="Layer_1" xmlns="http://www.w3.org/2000/svg" xmlns:xlink="http://www.w3.org/1999/xlink" x="0px" y="0px"
	 width="100%" viewBox="0 0 1024 1024" enable-background="new 0 0 1024 1024" xml:space="preserve">
<path fill="#000000" opacity="1.000000" stroke="none" 
	d="
M548.673645,165.318634 
	C547.713684,171.279510 545.100098,176.062805 541.654846,180.936707 
	C548.852478,183.163132 556.113281,183.422180 563.196899,184.507492 
	C593.811218,189.197937 622.302856,199.796646 649.461792,214.469467 
	C680.983032,231.499039 707.859619,254.062851 730.185364,281.960205 
	C758.253174,317.032593 776.585449,356.741150 785.335938,400.822601 
	C788.504944,416.786804 791.146667,432.823242 791.393250,449.167419 
	C791.485657,455.291687 792.396301,456.061462 798.448914,456.072845 
	C809.948242,456.094452 821.448364,455.991302 832.946838,456.093567 
	C843.751038,456.189636 847.333313,459.865784 847.344849,470.548828 
	C847.358643,483.381531 847.378479,496.214325 847.334167,509.046875 
	C847.307495,516.786316 844.235901,520.384155 836.668823,521.580017 
	C834.706665,521.890137 832.693848,521.997498 830.704163,521.998169 
	C662.046875,522.053589 493.389557,522.083862 324.732239,522.129944 
	C281.567963,522.141724 238.403671,522.210571 195.239380,522.225342 
	C185.937546,522.228516 181.708801,519.662476 179.367599,512.983398 
	C178.740692,511.195007 178.672836,509.403046 178.671844,507.572235 
	C178.665222,495.406189 178.643723,483.240112 178.668594,471.074097 
	C178.689392,460.896515 182.952759,456.327179 193.145767,456.139954 
	C204.807983,455.925751 216.476959,456.097015 228.142868,456.060791 
	C234.671143,456.040527 235.446152,455.384674 235.617218,449.067993 
	C236.341904,422.308838 241.091660,396.227661 249.124786,370.758942 
	C260.131287,335.863373 277.787170,304.633270 301.104980,276.427490 
	C341.535004,227.522324 393.862793,199.041794 455.200989,185.938034 
	C465.188995,183.804291 475.427643,182.843918 486.032776,181.269608 
	C484.611572,179.045380 483.466553,177.260559 482.328522,175.471268 
	C468.355682,153.502197 480.378754,123.976105 505.672058,118.142601 
	C526.280396,113.389610 548.803223,130.840836 549.345154,151.994659 
	C549.455872,156.313919 549.830200,160.648376 548.673645,165.318634 
M754.563049,376.811096 
	C739.058533,330.290100 712.514893,291.187836 674.644897,260.128082 
	C633.771423,226.604919 586.173584,209.026489 533.867981,204.603973 
	C507.630005,202.385498 481.398956,204.264420 455.540100,210.300903 
	C380.732910,227.763931 325.477966,270.499054 289.257996,338.087219 
	C272.872070,368.664093 263.296204,401.354034 259.611206,435.743896 
	C258.915558,442.235962 257.404388,448.858490 258.791107,456.060394 
	C261.843506,456.060394 264.799652,456.060028 267.755829,456.060394 
	C379.713470,456.075012 491.671082,456.093323 603.628723,456.102722 
	C657.274902,456.107208 710.921082,456.070679 764.567078,456.154388 
	C767.582031,456.159088 769.010742,455.395813 768.653748,452.278534 
	C768.333435,449.480896 767.890442,446.690094 767.724060,443.883087 
	C766.379028,421.196472 761.897400,399.129364 754.563049,376.811096 
M313.499939,498.648926 
	C480.149506,498.648834 646.799072,498.648895 813.448669,498.648315 
	C823.713257,498.648285 823.713318,498.645935 823.724976,488.279419 
	C823.733887,480.350555 823.733826,480.350250 815.979004,480.350433 
	C615.332947,480.355469 414.686890,480.360687 214.040833,480.365356 
	C202.157318,480.365631 202.379059,480.368744 202.094666,492.237061 
	C201.975677,497.202515 203.340332,498.801239 208.511322,498.767487 
	C243.172958,498.541199 277.836761,498.648987 313.499939,498.648926 
M523.604980,160.980438 
	C523.956543,160.232346 524.373535,159.507538 524.649353,158.732483 
	C526.864868,152.506454 523.951904,145.498291 518.099243,142.914780 
	C512.432983,140.413544 505.454834,142.768372 502.155640,148.295090 
	C498.786743,153.938614 500.169006,160.632629 505.526215,164.618423 
	C510.895233,168.612961 517.279907,167.513931 523.604980,160.980438 
z"/>
<path fill="#000000" opacity="1.000000" stroke="none" 
	d="
M807.850952,566.251465 
	C810.085449,569.233459 811.636780,572.178650 812.708374,575.351440 
	C815.029785,582.223999 813.662659,588.047363 808.231262,592.447937 
	C789.694214,607.467041 772.894165,624.384583 755.332886,640.471497 
	C727.578247,665.895996 699.824219,691.310547 670.130066,714.534729 
	C655.079529,726.305786 637.910767,731.096191 619.443420,733.408325 
	C600.010559,735.841309 580.692932,739.180298 561.285278,741.833130 
	C546.150818,743.901855 530.960449,745.567078 515.786499,747.339294 
	C484.160583,751.032959 453.663879,743.499634 422.992432,737.854919 
	C402.613617,734.104492 382.603760,727.814636 361.598572,728.401245 
	C347.255493,728.801697 333.281860,731.922363 319.342865,735.137817 
	C316.336121,735.831360 316.345490,737.705994 316.347778,739.947083 
	C316.357391,749.446350 316.368408,758.945679 316.335785,768.444885 
	C316.309296,776.161987 313.272339,779.691467 305.630585,780.858459 
	C303.993378,781.108521 302.311218,781.142639 300.649719,781.143005 
	C275.318359,781.148315 249.986938,781.159973 224.655670,781.105774 
	C214.618332,781.084290 211.721436,778.317566 210.441635,768.486267 
	C209.877747,764.154541 209.972443,759.838257 209.972488,755.514832 
	C209.973236,694.519531 210.003754,633.524292 210.039307,572.528992 
	C210.048660,556.494690 212.919434,553.650574 228.970291,553.650635 
	C253.468430,553.650635 277.966583,553.637207 302.464722,553.659790 
	C312.651306,553.669189 316.336121,557.356873 316.347626,567.421265 
	C316.353058,572.184814 316.348541,576.948364 316.348541,582.390991 
	C325.143860,578.029480 333.088287,573.943298 341.156281,570.117554 
	C362.410095,560.039368 384.221344,551.498779 407.458862,547.171814 
	C415.130188,545.743347 422.846619,544.591431 430.715057,544.627197 
	C470.874817,544.809692 511.034973,544.924683 551.195129,544.995972 
	C561.357849,545.014038 571.523621,544.582886 581.683289,544.716553 
	C598.375183,544.936096 611.801636,554.753601 615.680420,569.772095 
	C619.183044,583.334045 614.066406,594.728943 605.186218,604.527893 
	C589.972656,621.315247 570.632446,629.108948 548.149353,630.443115 
	C533.007202,631.341675 517.969666,629.588989 502.622894,630.070740 
	C510.317566,632.136414 518.019409,631.824890 525.626831,631.905823 
	C547.421814,632.137695 569.207336,631.844910 590.950928,629.958923 
	C600.888306,629.097046 610.923279,629.169800 620.810059,627.965637 
	C631.594910,626.652161 640.023926,619.824219 648.658081,613.954041 
	C677.605713,594.273193 706.905945,575.180603 737.927429,558.877991 
	C747.677979,553.753845 757.676880,549.403809 768.942566,548.573242 
	C785.069214,547.384399 797.850586,553.228638 807.850952,566.251465 
M478.582642,617.032898 
	C487.462341,608.683533 498.568451,606.623718 510.043091,606.885376 
	C524.217651,607.208679 538.342224,607.197266 552.281860,604.543823 
	C566.212158,601.892090 579.374695,597.389648 588.796204,585.790771 
	C594.560791,578.693970 592.742676,572.878174 584.010254,570.079590 
	C581.372009,569.234070 578.697693,569.095276 576.111145,569.530640 
	C571.130432,570.368896 566.145142,570.130676 561.155334,570.200439 
	C521.998474,570.747864 482.859558,569.152466 443.706238,569.205627 
	C435.540527,569.216675 427.341766,569.038940 419.307678,570.535461 
	C384.117950,577.090271 351.125397,589.469788 320.550385,608.194214 
	C317.507507,610.057739 316.256226,612.300171 316.282410,615.908813 
	C316.422760,635.239685 316.346222,654.572205 316.346191,673.904114 
	C316.346130,685.069946 316.430878,696.236755 316.304352,707.401123 
	C316.262421,711.104858 317.449249,712.230530 321.078125,711.032898 
	C323.903687,710.100342 326.882660,709.618469 329.807678,709.004028 
	C346.480713,705.501282 363.339081,703.245361 380.267426,706.012695 
	C402.374451,709.626526 424.329041,714.163879 446.379150,718.138000 
	C462.383789,721.022400 478.373352,724.288574 494.700134,724.588928 
	C506.507141,724.806152 518.201111,722.889709 529.915649,721.629395 
	C542.450012,720.280823 554.985352,718.883789 567.470764,717.151733 
	C584.228394,714.826904 600.929565,712.098938 617.672058,709.660889 
	C629.880371,707.883179 641.966675,706.158997 652.212402,698.178955 
	C674.178284,681.070496 695.176208,662.833435 715.764099,644.125305 
	C733.762329,627.770325 751.452881,611.076843 769.283386,594.537354 
	C774.974731,589.258179 780.679077,583.993225 786.490356,578.617432 
	C783.012024,574.406250 779.065369,572.448242 774.084656,572.293640 
	C768.257629,572.112793 762.902832,573.815308 757.687378,576.081665 
	C739.598267,583.942078 723.141907,594.770996 706.127075,604.580566 
	C687.781128,615.157593 670.898010,627.988892 652.971375,639.215454 
	C642.869019,645.542114 632.301697,651.236816 620.291260,652.109680 
	C599.083374,653.651062 577.819214,654.626892 556.561340,655.217102 
	C530.596924,655.937988 504.760040,653.193420 478.889038,651.445129 
	C472.621185,651.021606 468.577179,648.068481 466.013031,642.753967 
	C463.458649,637.459717 464.189728,632.378296 467.886047,627.808105 
	C470.930420,624.044006 474.299530,620.582275 478.582642,617.032898 
M286.318268,757.643005 
	C292.878876,757.589233 292.934387,757.589294 292.939117,751.015930 
	C292.978607,696.059021 293.008820,641.102173 292.982544,586.145264 
	C292.981232,583.396240 293.660004,580.550476 292.555756,577.609985 
	C290.918121,577.516235 289.451263,577.360962 287.984192,577.359192 
	C271.497101,577.338989 255.007492,577.501038 238.524429,577.241577 
	C233.678940,577.165283 232.301315,578.752563 232.314285,583.513184 
	C232.463531,638.303284 232.417282,693.093811 232.445282,747.884277 
	C232.446869,750.999390 232.362808,754.146423 233.390167,757.643982 
	C250.780838,757.643982 268.070587,757.643982 286.318268,757.643005 
z"/>
<path fill="#000000" opacity="1.000000" stroke="none" 
	d="
M415.969238,248.779022 
	C420.707886,247.293167 424.750732,244.813141 429.785004,246.385666 
	C434.912079,247.987167 437.743134,251.288147 438.205109,256.350311 
	C438.639496,261.110168 436.222137,264.729340 431.960999,266.825287 
	C423.441650,271.015717 414.884064,275.104523 406.894501,280.294312 
	C373.118378,302.234344 350.727966,333.236938 335.492310,369.921692 
	C329.548828,384.232452 324.913788,398.944733 321.994873,414.204407 
	C320.638336,421.296082 316.037964,424.226410 308.885345,423.333405 
	C303.366669,422.644409 300.016632,418.087067 300.603729,411.165802 
	C301.977966,394.965149 306.486877,379.459320 312.463440,364.464752 
	C327.740540,326.136108 351.045959,293.529144 383.180573,267.445007 
	C392.957886,259.508636 403.968842,253.643402 415.969238,248.779022 
z"/>
</svg>