<svg version="1.1" id="Layer_1" xmlns="http://www.w3.org/2000/svg" xmlns:xlink="http://www.w3.org/1999/xlink" x="0px" y="0px"
	 width="100%" viewBox="0 0 1024 880" enable-background="new 0 0 1024 880" xml:space="preserve">
<path fill="#000000" opacity="1.000000" stroke="none" 
	d="
M932.361145,513.701294 
	C933.662476,528.416870 934.959656,542.670776 936.207642,556.928955 
	C938.021240,577.649231 939.775879,598.374756 941.598999,619.094238 
	C943.465881,640.311829 945.383911,661.525024 947.281921,682.739868 
	C948.156921,692.519470 949.040710,702.298279 949.912048,712.078186 
	C950.030273,713.405273 950.140503,714.735596 950.182434,716.066711 
	C950.443726,724.365662 947.667236,727.348877 939.415283,727.364441 
	C917.250122,727.406189 895.084778,727.377625 872.919556,727.377502 
	C845.427734,727.377380 817.935852,727.376953 790.444031,727.378174 
	C713.782288,727.381592 637.120544,727.418884 560.458984,727.302246 
	C556.128418,727.295654 553.744507,728.426514 551.574890,732.468506 
	C545.273376,744.208374 534.411377,750.382141 522.067749,753.905457 
	C499.600494,760.318542 477.912964,758.684753 457.586700,746.368225 
	C452.084167,743.034058 447.362488,738.690125 444.681854,732.783813 
	C442.713318,728.446411 439.872406,727.304749 435.314697,727.311707 
	C358.653137,727.428955 281.991333,727.377930 205.329590,727.380249 
	C156.174255,727.381714 107.018913,727.413879 57.863579,727.420898 
	C47.760555,727.422302 44.971703,723.915466 45.993366,713.954163 
	C47.775635,696.576538 49.145405,679.156860 50.712379,661.757019 
	C52.936306,637.062195 55.229519,612.373596 57.404362,587.674500 
	C59.258343,566.619385 60.962769,545.551208 62.778011,524.492615 
	C64.564896,503.762970 66.405304,483.037933 68.227089,462.311340 
	C70.078491,441.247803 71.936913,420.184845 73.790298,399.121460 
	C76.037193,373.586090 78.286186,348.050903 80.526237,322.514923 
	C81.893272,306.931000 83.113945,291.332672 84.663170,275.766968 
	C85.364250,268.722809 87.739693,266.892120 94.611427,266.578918 
	C100.601105,266.305969 106.569107,265.884827 112.581985,266.423584 
	C118.060646,266.914490 119.222054,265.671967 119.680191,260.009674 
	C120.942200,244.412216 122.106003,228.805405 123.551003,213.224777 
	C124.171028,206.539368 126.872002,204.156204 133.603271,204.120071 
	C141.261215,204.078949 148.925354,204.366013 156.578842,204.695526 
	C160.066513,204.845703 161.672882,203.808670 161.850571,199.998795 
	C162.276794,190.860016 163.173279,181.744110 163.798492,172.613373 
	C164.317215,165.037811 166.692078,162.454453 174.154907,161.943634 
	C232.895569,157.923080 291.418182,158.675598 349.154968,171.737244 
	C398.794006,182.966934 443.853912,203.392960 480.246490,240.134766 
	C486.318848,246.265366 491.816742,252.964996 497.682770,259.516357 
	C500.537811,258.647827 501.622925,255.979202 503.246216,254.029739 
	C532.119995,219.355042 568.911621,196.501923 611.146484,181.889786 
	C641.360352,171.436600 672.542725,165.552567 704.362854,162.711624 
	C730.114197,160.412521 755.896179,159.304428 781.734741,159.993301 
	C794.550171,160.334961 807.358032,161.083633 820.158264,161.835571 
	C829.400940,162.378525 831.707947,164.819321 832.393311,174.039780 
	C833.047058,182.834595 833.785156,191.625519 834.253174,200.430542 
	C834.425476,203.671387 835.738464,204.845291 838.885071,204.713562 
	C846.206055,204.407104 853.532654,204.154449 860.859009,204.082870 
	C869.763916,203.995880 872.521423,206.698364 873.127441,215.453690 
	C874.173401,230.562744 875.340515,245.663605 876.332581,260.776031 
	C876.573730,264.450226 878.023132,266.219055 881.875305,266.135773 
	C888.037842,266.002472 894.213135,265.965240 900.370483,266.207092 
	C908.475220,266.525360 910.535339,268.620239 911.454163,276.539429 
	C914.083130,299.198212 915.386292,321.971802 917.398071,344.683746 
	C919.908630,373.026550 922.636169,401.350189 925.142334,429.693359 
	C926.988953,450.578247 928.611633,471.482880 930.375183,492.375244 
	C930.962769,499.336212 931.678101,506.286346 932.361145,513.701294 
M687.034119,613.412231 
	C691.584412,612.412842 696.149597,611.476379 700.682678,610.404236 
	C745.513245,599.801941 791.094299,596.358093 837.007507,596.089661 
	C846.306335,596.035278 846.289612,596.082703 845.631897,587.051941 
	C844.059814,565.467102 842.502075,543.881104 840.944458,522.295166 
	C838.247864,484.925476 835.561707,447.554993 832.860168,410.185638 
	C829.895142,369.170715 826.880371,328.159332 823.957336,287.141449 
	C821.484192,252.437057 819.065552,217.728561 816.761963,183.012650 
	C816.522888,179.409088 815.186279,178.061996 811.643433,177.932953 
	C799.993469,177.508606 788.356750,176.578903 776.705261,176.361893 
	C750.029907,175.865097 723.425293,177.229050 696.899170,180.134415 
	C660.760437,184.092590 625.635986,191.914749 592.406738,207.148849 
	C560.040222,221.987381 532.305542,242.675064 510.572632,271.134094 
	C507.471222,275.195343 506.160767,279.285217 506.176056,284.415863 
	C506.338623,338.913086 506.300995,393.410950 506.301270,447.908630 
	C506.301666,529.240540 506.281189,610.572388 506.310822,691.904297 
	C506.311829,694.666382 505.701324,697.542114 507.170105,700.461365 
	C510.214752,699.548218 512.329712,697.353210 514.665955,695.600464 
	C542.088257,675.026489 571.438110,657.749268 602.552856,643.347717 
	C629.553955,630.850098 657.494385,621.130493 687.034119,613.412231 
M436.001892,665.437500 
	C454.318146,675.988770 471.519104,688.273560 489.366516,701.241760 
	C489.552582,698.411316 489.714386,697.097839 489.714569,695.784424 
	C489.732056,557.657227 489.729645,419.529999 489.792023,281.402802 
	C489.793488,278.214508 488.884827,275.642303 487.012299,273.128418 
	C474.571564,256.426575 459.938477,241.938889 443.020782,229.826569 
	C405.134308,202.701508 362.068848,189.180969 316.579224,182.295944 
	C294.497528,178.953796 272.242645,177.561707 249.919662,176.674042 
	C227.899734,175.798447 205.970612,176.860825 184.013580,177.902939 
	C180.814270,178.054810 179.628983,179.722336 179.427719,182.613251 
	C178.052307,202.369278 176.645081,222.123077 175.283524,241.880051 
	C174.139236,258.484497 173.113068,275.097321 171.908813,291.697327 
	C170.090988,316.755432 168.118469,341.802277 166.295807,366.860046 
	C164.509262,391.420776 162.855057,415.991089 161.092255,440.553589 
	C159.531845,462.296173 157.910278,484.034363 156.299973,505.773346 
	C155.083237,522.199219 153.795837,538.619934 152.626251,555.049194 
	C151.751709,567.333923 151.028000,579.629333 150.207184,591.918030 
	C150.014130,594.808350 150.448181,596.593872 154.174210,596.495605 
	C170.989578,596.052368 187.788910,596.619873 204.586044,597.580811 
	C239.919479,599.602295 274.711090,604.997314 309.049957,613.538635 
	C353.650696,624.632446 395.654205,642.030823 436.001892,665.437500 
M887.403442,397.123932 
	C889.655029,424.320892 891.953430,451.514099 894.143677,478.716003 
	C895.987122,501.609741 897.690186,524.514771 899.481384,547.412781 
	C902.103577,580.934387 904.786255,614.451294 907.357117,647.976868 
	C907.961670,655.860901 904.911377,659.198853 897.165833,659.241699 
	C865.514099,659.416931 833.921509,660.891846 802.354736,663.155273 
	C778.437378,664.870239 754.624146,667.546082 730.888245,670.844299 
	C688.481567,676.736877 646.470337,684.728271 605.003540,695.463379 
	C587.311707,700.043579 569.701538,704.910950 552.266785,710.573975 
	C556.699097,710.844910 561.105164,710.844421 565.511169,710.845032 
	C685.647888,710.860779 805.784546,710.877625 925.921265,710.890076 
	C932.999512,710.890808 933.251770,710.759155 932.697083,704.071472 
	C930.648621,679.373718 928.537903,654.680786 926.363708,629.993774 
	C924.203247,605.462036 921.913879,580.941650 919.726440,556.412292 
	C917.938049,536.358521 916.231079,516.297485 914.461060,496.242065 
	C912.574097,474.861725 910.621155,453.487183 908.760559,432.104584 
	C906.942810,411.214813 905.243347,390.314789 903.422363,369.425293 
	C901.254761,344.558990 899.076233,319.693298 896.778931,294.838745 
	C895.472839,280.707123 896.820129,283.381592 883.812622,283.052521 
	C880.113037,282.958893 878.766479,284.523743 879.047302,288.179810 
	C880.283813,304.274902 881.330200,320.384583 882.570740,336.479340 
	C884.105164,356.387177 885.763428,376.285492 887.403442,397.123932 
M79.503281,710.834229 
	C200.592880,710.834229 321.682465,710.834229 442.772064,710.834229 
	C416.377777,701.947021 389.696442,694.859192 362.776337,688.631714 
	C318.286713,678.339844 273.297852,671.084900 227.917953,666.176880 
	C195.130020,662.630798 162.239471,660.666443 129.268570,660.005615 
	C118.777817,659.795349 108.286926,659.573059 97.798508,659.272095 
	C91.768318,659.099121 87.954536,655.526733 88.370117,650.022705 
	C90.199036,625.800171 92.174080,601.588623 94.132301,577.375977 
	C95.956390,554.821899 97.837112,532.272461 99.672096,509.719238 
	C100.940315,494.131866 102.175484,478.541840 103.421173,462.952637 
	C104.852371,445.041901 106.283508,427.131195 107.706139,409.219788 
	C109.169083,390.800781 110.596260,372.378876 112.085487,353.962006 
	C113.869553,331.898926 115.692940,309.838989 117.525932,287.779907 
	C117.780785,284.712830 116.715569,282.968658 113.403847,283.024048 
	C110.239059,283.076996 107.072472,283.083069 103.907478,283.043976 
	C101.466606,283.013855 100.228294,284.148895 100.030914,286.581177 
	C99.708076,290.559479 99.307831,294.531525 98.951691,298.507202 
	C97.066216,319.555023 95.130814,340.598572 93.317627,361.652618 
	C91.789467,379.397125 90.464439,397.159088 88.942284,414.904114 
	C86.737190,440.610596 84.421165,466.307556 82.179459,492.010925 
	C80.386406,512.570007 78.644600,533.133667 76.859917,553.693481 
	C74.989136,575.245056 73.117569,596.796692 71.202682,618.344360 
	C69.685417,635.417725 68.080994,652.483276 66.555344,669.555847 
	C65.459541,681.818359 64.463898,694.089844 63.347458,706.350342 
	C63.056805,709.542297 64.178329,711.004639 67.509743,710.865295 
	C71.169144,710.712341 74.839958,710.832214 79.503281,710.834229 
M351.597504,643.959229 
	C339.193115,639.571533 326.678894,635.554932 314.001892,631.998047 
	C279.877747,622.423584 245.037857,617.106750 209.781860,614.385742 
	C187.675339,612.679504 165.503494,612.912659 143.344162,613.192444 
	C135.773163,613.288025 132.458389,610.159790 132.787796,602.650696 
	C133.137451,594.679871 134.114471,586.738708 134.611023,578.771790 
	C136.629562,546.384766 139.086197,514.031311 141.564835,481.676544 
	C143.661911,454.302460 145.311523,426.895477 147.502960,399.523407 
	C150.065552,367.515625 151.812057,335.446564 154.543854,303.444885 
	C156.595901,279.406067 157.914169,255.305069 159.623322,231.236313 
	C160.336731,221.189804 160.412415,221.194839 150.544662,221.067688 
	C148.545364,221.041931 146.537415,221.129272 144.548615,220.972290 
	C140.874115,220.682220 139.253922,221.963867 138.963272,225.960358 
	C137.441925,246.880249 135.622284,267.778381 133.922272,288.685364 
	C131.359741,320.199829 128.777512,351.712769 126.265411,383.231262 
	C124.123634,410.103485 122.129196,436.987549 119.959801,463.857513 
	C117.496262,494.370575 114.849808,524.868896 112.396278,555.382751 
	C110.196075,582.745972 108.288597,610.133667 105.901436,637.479919 
	C105.494881,642.137268 107.057381,642.724426 110.966476,642.781128 
	C124.951782,642.983948 138.939102,643.327087 152.913757,643.905212 
	C165.887589,644.441956 178.871124,645.052429 191.806564,646.148010 
	C224.133942,648.885864 256.346008,652.596313 288.429840,657.530151 
	C330.451447,663.992249 371.938110,672.856812 412.951355,683.988281 
	C425.130615,687.293823 437.236084,690.871216 449.375366,694.324097 
	C419.048157,673.496155 386.599731,657.076233 351.597504,643.959229 
M855.355957,494.250824 
	C857.963501,529.278687 860.524414,564.310120 863.205933,599.332336 
	C864.051086,610.370300 861.539001,613.364014 850.649353,613.138245 
	C811.604858,612.328735 772.735962,614.152649 734.156067,620.603394 
	C681.499207,629.408020 631.360413,645.675476 584.279663,671.040527 
	C571.295959,678.035583 558.598145,685.497620 546.521667,694.045959 
	C547.275085,694.189575 547.869629,693.999329 548.468872,693.825195 
	C571.807800,687.044189 595.170227,680.336487 618.845032,674.813049 
	C665.904053,663.833984 713.398132,655.506775 761.486755,650.356262 
	C793.132141,646.966858 824.788940,644.382629 856.601440,643.642334 
	C866.256714,643.417664 875.906433,642.901306 885.562134,642.776001 
	C889.181274,642.729065 890.243835,641.149414 890.009399,637.869202 
	C889.736267,634.048401 889.737610,630.206970 889.429871,626.389893 
	C886.566711,590.878540 883.620667,555.373962 880.785767,519.860413 
	C878.957703,496.959839 877.380615,474.038940 875.504211,451.142517 
	C872.377686,412.993713 868.996704,374.865631 865.918091,336.713104 
	C863.013184,300.713226 860.372681,264.692078 857.585876,228.682571 
	C856.989929,220.982925 856.807739,220.873260 849.307678,220.992340 
	C846.475342,221.037292 843.637207,221.218353 840.812134,221.096375 
	C837.367371,220.947647 835.953003,222.354065 836.255676,225.831772 
	C836.746460,231.469849 837.021729,237.126328 837.433594,242.771698 
	C839.674133,273.475708 841.959717,304.176422 844.167297,334.882782 
	C845.647461,355.471588 847.000305,376.069458 848.451965,396.660370 
	C850.723328,428.878571 853.030090,461.094238 855.355957,494.250824 
M513.572571,739.119690 
	C520.648926,736.947266 527.851685,735.009888 534.109192,728.083862 
	C509.580658,728.083862 486.400726,728.083862 462.978821,728.083862 
	C465.026611,731.585510 465.859039,732.316406 470.033447,734.477234 
	C483.664429,741.533081 498.033752,742.163269 513.572571,739.119690 
z"/>
</svg>