<svg version="1.1" id="Layer_1" xmlns="http://www.w3.org/2000/svg" xmlns:xlink="http://www.w3.org/1999/xlink" x="0px" y="0px"
	 width="100%" viewBox="0 0 1024 1024" enable-background="new 0 0 1024 1024" xml:space="preserve">
<path fill="#000000" opacity="1.000000" stroke="none" 
	d="
M466.428467,244.406006 
	C463.497070,238.198288 461.169067,232.209122 459.546997,225.865616 
	C455.622894,210.519333 464.838501,192.376297 481.822968,185.044159 
	C504.069885,175.440216 530.226624,185.514145 537.638794,206.663956 
	C541.185730,216.784851 539.474365,226.618500 535.648010,236.330383 
	C532.832214,243.477127 528.711365,249.938568 524.995789,257.099823 
	C530.569946,259.526428 536.438110,259.487579 542.017456,260.582123 
	C631.529114,278.142242 702.209106,344.443726 721.133667,436.239227 
	C723.179993,446.165070 724.622620,456.241486 725.015747,466.329895 
	C725.234558,471.946686 727.295227,472.789520 732.151306,472.741028 
	C753.313293,472.529633 774.479187,472.569122 795.642578,472.694733 
	C805.571716,472.753662 811.178650,482.364746 806.520264,491.032288 
	C804.485962,494.817322 801.268250,496.984283 796.944580,497.333344 
	C795.453369,497.453735 793.946716,497.397156 792.447083,497.397156 
	C598.303528,497.398590 404.159973,497.397797 210.016403,497.396210 
	C207.850006,497.396179 205.682816,497.418671 203.517380,497.369751 
	C196.278488,497.206268 190.658173,491.626434 190.781342,484.756653 
	C190.902557,477.995575 196.325714,472.701538 203.484879,472.679108 
	C225.482040,472.610138 247.479752,472.601624 269.476715,472.692627 
	C272.912506,472.706848 274.589752,471.899994 274.719177,468.006256 
	C275.718536,437.949310 283.535583,409.520691 296.737427,382.686371 
	C319.731903,335.947449 354.681671,300.850830 401.690308,278.247650 
	C422.616241,268.185822 444.707001,261.416077 467.871033,258.540985 
	C469.489655,258.340057 471.055420,257.712860 472.947906,257.202393 
	C471.720673,252.408783 468.611603,248.839142 466.428467,244.406006 
M413.784088,300.362183 
	C368.766724,322.089264 336.063324,355.719116 315.951843,401.534546 
	C307.192108,421.489899 302.054901,442.348480 299.738220,464.001648 
	C298.855988,472.247375 298.773468,472.646790 306.836456,472.647003 
	C430.462616,472.650299 554.088745,472.650879 677.714905,472.651306 
	C683.879517,472.651337 690.047546,472.520264 696.207520,472.687347 
	C699.829712,472.785614 701.040894,471.198914 700.535645,467.836609 
	C699.278870,459.472900 698.558655,451.043762 696.747864,442.745605 
	C682.893188,379.253510 647.484009,332.012177 589.439575,302.736572 
	C555.754272,285.746826 519.517639,280.080444 481.834320,283.134064 
	C458.374023,285.035126 435.916046,290.397430 413.784088,300.362183 
M513.605408,224.974304 
	C515.107056,220.239288 515.972229,215.556580 512.169067,211.399368 
	C507.097595,205.855820 496.130219,204.937424 489.116974,209.435715 
	C483.179260,213.244217 482.156708,218.861145 485.854797,227.373688 
	C486.317627,228.439026 486.723419,229.536819 487.275665,230.554428 
	C490.780090,237.012054 494.300018,243.463882 499.403717,249.432053 
	C505.227692,241.631989 509.846100,234.009979 513.605408,224.974304 
z"/>
<path fill="#000000" opacity="1.000000" stroke="none" 
	d="
M715.149414,729.072510 
	C696.790161,713.313721 678.217712,698.325500 660.829407,682.070557 
	C647.203979,669.333191 632.309143,665.289978 614.180054,668.281616 
	C593.381592,671.713806 572.344543,673.679382 551.442261,676.511658 
	C538.105957,678.318665 524.780518,680.115845 511.394592,681.581543 
	C487.690796,684.177124 465.025421,680.457886 442.882843,672.163269 
	C399.384308,655.868713 361.774811,630.026611 326.468994,600.455750 
	C318.676575,593.929077 310.933014,587.282532 304.468140,579.396423 
	C289.408051,561.025269 298.104523,533.521362 320.912811,527.389038 
	C328.592621,525.324219 336.143402,526.704712 343.299469,529.895508 
	C358.833923,536.822021 373.579926,545.293030 388.575745,553.272583 
	C393.722198,556.011108 398.890503,558.712402 403.973358,561.565186 
	C406.338745,562.892761 407.647308,562.576843 409.168335,560.126953 
	C418.039978,545.838074 427.597687,541.543091 444.036255,544.572998 
	C469.188843,549.209045 494.557587,550.634033 520.047485,549.550293 
	C538.113953,548.782227 555.434753,544.334900 572.415466,538.079224 
	C591.814941,530.932373 611.656189,525.814575 632.639587,525.501953 
	C653.422485,525.192322 671.018311,532.450012 686.551147,545.584778 
	C692.143555,550.313843 697.740051,555.123108 702.735474,560.456909 
	C716.501404,575.155212 733.680603,585.087830 750.516113,595.535889 
	C766.224609,605.284485 781.967834,614.977478 797.659119,624.753662 
	C805.005127,629.330566 807.331482,636.673401 803.596008,642.987732 
	C799.772095,649.451599 791.799072,651.197449 784.358154,646.625671 
	C767.612915,636.337036 750.974976,625.870178 734.408569,615.295471 
	C722.488342,607.686523 709.865662,601.057312 699.278931,591.525391 
	C692.349365,585.286316 685.546631,578.858887 679.168945,572.063477 
	C660.764160,552.452942 638.558105,546.855286 612.719910,552.754944 
	C599.213684,555.838806 586.159119,560.232788 573.114563,564.756287 
	C554.289917,571.284180 534.919556,574.601807 514.992737,575.500916 
	C489.587067,576.647278 464.514343,574.648560 439.645660,569.521362 
	C438.349121,569.254089 436.995483,569.162292 435.668701,569.164490 
	C433.071716,569.168701 431.126465,570.335144 430.374146,572.893066 
	C429.588623,575.564026 430.900970,577.482544 433.162842,578.665955 
	C445.557892,585.150757 457.916809,591.701050 471.452850,595.649536 
	C488.057404,600.493347 504.992767,602.211853 522.238525,601.729492 
	C529.841431,601.516846 534.884216,605.142395 536.303406,611.175964 
	C538.439209,620.256226 532.366333,627.123718 521.735168,627.274109 
	C499.424713,627.589722 477.718933,624.247803 456.607117,616.776123 
	C438.564087,610.390503 422.466034,600.263550 405.733917,591.334839 
	C382.368713,578.866638 359.219788,565.987671 335.455475,554.276123 
	C328.273468,550.736694 325.168121,550.819519 322.606903,554.624634 
	C320.175903,558.236328 321.187042,561.439758 326.730530,566.513550 
	C361.842133,598.649963 399.814850,626.586426 443.783936,645.591919 
	C465.259979,654.874878 487.539703,658.503174 511.017303,655.945740 
	C536.773621,653.140076 562.358582,649.178772 588.034485,645.846375 
	C599.555237,644.351135 611.094116,642.972839 622.647644,641.759460 
	C640.962769,639.836060 656.863281,645.868042 670.611633,657.548401 
	C690.671631,674.591187 710.454407,691.961121 730.286377,709.270691 
	C736.787537,714.945007 737.918762,721.611328 733.693481,727.311768 
	C729.562378,732.885071 722.748657,733.626404 715.149414,729.072510 
z"/>
<path fill="#000000" opacity="1.000000" stroke="none" 
	d="
M367.093689,377.142914 
	C391.907166,345.162109 424.148010,325.730438 463.134094,317.095367 
	C474.384979,314.603394 481.896118,319.995178 481.336090,330.252380 
	C481.031708,335.827332 477.459534,339.838928 470.966431,341.398682 
	C456.199554,344.945984 441.724609,349.290222 428.375916,356.726349 
	C397.940186,373.681152 377.555298,399.119751 365.447693,431.512726 
	C364.808685,433.222321 364.266663,435.001862 363.376923,436.578033 
	C360.111206,442.363251 353.553528,444.621063 347.516418,442.174255 
	C341.675964,439.807159 338.455597,433.255249 340.435242,426.954102 
	C346.138428,408.801117 355.430115,392.530670 367.093689,377.142914 
z"/>
</svg>