<svg version="1.1" id="Layer_1" xmlns="http://www.w3.org/2000/svg" xmlns:xlink="http://www.w3.org/1999/xlink" x="0px" y="0px"
	 width="100%" viewBox="0 0 1024 1024" enable-background="new 0 0 1024 1024" xml:space="preserve">
<path fill="#FCFCFC" opacity="1.000000" stroke="none" 
	d="
M1025.000000,395.000000 
	C1025.000000,605.333313 1025.000000,815.166687 1025.000000,1025.000000 
	C683.666687,1025.000000 342.333344,1025.000000 1.000000,1025.000000 
	C1.000000,683.666687 1.000000,342.333344 1.000000,1.000000 
	C342.333344,1.000000 683.666687,1.000000 1025.000000,1.000000 
	C1025.000000,132.166672 1025.000000,263.333344 1025.000000,395.000000 
M798.872131,625.500061 
	C798.870911,477.346558 798.870117,329.193054 798.867249,181.039536 
	C798.867065,171.475876 794.642090,167.107269 785.460388,167.108093 
	C644.473816,167.120880 503.487213,167.130020 362.500610,167.139969 
	C358.801910,167.140244 355.103241,167.140015 351.404541,167.140015 
	C351.401398,166.945755 351.398254,166.751495 351.395142,166.557251 
	C460.171112,142.493927 568.947083,118.430611 677.707458,94.370743 
	C677.835693,94.839272 677.917114,94.999771 677.918213,95.160797 
	C677.949768,99.991829 677.954834,104.823105 678.002808,109.653954 
	C678.074097,116.826653 682.891968,122.035400 689.384766,121.996552 
	C696.059570,121.956619 700.951538,116.871323 700.988525,109.807381 
	C701.035706,100.808464 700.999451,91.809097 700.999084,82.809929 
	C700.998596,72.162125 695.081482,66.944145 684.849426,69.165161 
	C650.985962,76.515709 617.163574,84.055916 583.328796,91.538597 
	C548.055603,99.339417 512.800476,107.222931 477.511719,114.952705 
	C430.616791,125.224731 383.697174,135.384155 336.787659,145.589615 
	C303.910065,152.742310 271.038086,159.921158 238.148651,167.019089 
	C230.501587,168.669434 227.182449,172.560059 227.182358,180.576218 
	C227.179642,414.887634 227.130829,649.199158 227.388687,883.510254 
	C227.398499,892.425842 229.239807,901.737000 232.187836,910.179321 
	C242.145203,938.694702 269.625366,959.181274 301.791840,959.126526 
	C462.276581,958.853333 622.762024,959.001465 783.247253,959.001221 
	C784.747131,959.001221 786.256042,959.105530 787.745300,958.979126 
	C796.282043,958.254761 800.836731,948.877380 796.321228,941.595947 
	C793.444153,936.956360 788.979187,936.376831 784.192505,936.376282 
	C749.862366,936.371948 715.532227,936.369568 681.202087,936.367432 
	C555.547119,936.359680 429.892181,936.345032 304.237244,936.361328 
	C296.211029,936.362427 288.414581,935.416931 281.021484,932.058044 
	C269.627594,926.881531 261.511017,918.487915 255.613724,907.001587 
	C258.173309,907.001587 259.999329,907.001587 261.825348,907.001587 
	C435.975861,907.001221 610.126343,907.001404 784.276855,906.999207 
	C794.486267,906.999084 798.852478,902.645874 798.853394,892.475464 
	C798.861267,803.817017 798.866821,715.158569 798.872131,625.500061 
z"/>
<path fill="#030303" opacity="1.000000" stroke="none" 
	d="
M798.872559,626.000122 
	C798.866821,715.158569 798.861267,803.817017 798.853394,892.475464 
	C798.852478,902.645874 794.486267,906.999084 784.276855,906.999207 
	C610.126343,907.001404 435.975861,907.001221 261.825348,907.001587 
	C259.999329,907.001587 258.173309,907.001587 255.613724,907.001587 
	C261.511017,918.487915 269.627594,926.881531 281.021484,932.058044 
	C288.414581,935.416931 296.211029,936.362427 304.237244,936.361328 
	C429.892181,936.345032 555.547119,936.359680 681.202087,936.367432 
	C715.532227,936.369568 749.862366,936.371948 784.192505,936.376282 
	C788.979187,936.376831 793.444153,936.956360 796.321228,941.595947 
	C800.836731,948.877380 796.282043,958.254761 787.745300,958.979126 
	C786.256042,959.105530 784.747131,959.001221 783.247253,959.001221 
	C622.762024,959.001465 462.276581,958.853333 301.791840,959.126526 
	C269.625366,959.181274 242.145203,938.694702 232.187836,910.179321 
	C229.239807,901.737000 227.398499,892.425842 227.388687,883.510254 
	C227.130829,649.199158 227.179642,414.887634 227.182358,180.576218 
	C227.182449,172.560059 230.501587,168.669434 238.148651,167.019089 
	C271.038086,159.921158 303.910065,152.742310 336.787659,145.589615 
	C383.697174,135.384155 430.616791,125.224731 477.511719,114.952705 
	C512.800476,107.222931 548.055603,99.339417 583.328796,91.538597 
	C617.163574,84.055916 650.985962,76.515709 684.849426,69.165161 
	C695.081482,66.944145 700.998596,72.162125 700.999084,82.809929 
	C700.999451,91.809097 701.035706,100.808464 700.988525,109.807381 
	C700.951538,116.871323 696.059570,121.956619 689.384766,121.996552 
	C682.891968,122.035400 678.074097,116.826653 678.002808,109.653954 
	C677.954834,104.823105 677.949768,99.991829 677.918213,95.160797 
	C677.917114,94.999771 677.835693,94.839272 677.707458,94.370743 
	C568.947083,118.430611 460.171112,142.493927 351.395142,166.557251 
	C351.398254,166.751495 351.401398,166.945755 351.404541,167.140015 
	C355.103241,167.140015 358.801910,167.140244 362.500610,167.139969 
	C503.487213,167.130020 644.473816,167.120880 785.460388,167.108093 
	C794.642090,167.107269 798.867065,171.475876 798.867249,181.039536 
	C798.870117,329.193054 798.870911,477.346558 798.872559,626.000122 
M776.074158,800.500000 
	C776.074158,597.093506 776.074158,393.686981 776.074158,190.286926 
	C600.411743,190.286926 425.349426,190.286926 250.292191,190.286926 
	C250.292191,421.585541 250.292191,652.630005 250.292191,883.662170 
	C425.663513,883.662170 600.728271,883.662170 776.075745,883.662170 
	C776.075745,856.105835 776.075745,828.802917 776.074158,800.500000 
z"/>
<path fill="#FCFCFC" opacity="1.000000" stroke="none" 
	d="
M776.074951,801.000000 
	C776.075745,828.802917 776.075745,856.105835 776.075745,883.662170 
	C600.728271,883.662170 425.663513,883.662170 250.292191,883.662170 
	C250.292191,652.630005 250.292191,421.585541 250.292191,190.286926 
	C425.349426,190.286926 600.411743,190.286926 776.074158,190.286926 
	C776.074158,393.686981 776.074158,597.093506 776.074951,801.000000 
M641.997742,626.504639 
	C642.692017,595.526184 643.363220,564.547119 644.085632,533.569336 
	C645.406250,476.941742 646.736145,420.314362 648.106079,363.687988 
	C648.605713,343.034454 649.361023,322.386383 649.751526,301.731140 
	C650.001831,288.494171 649.798462,275.248657 649.798462,261.963104 
	C636.615479,261.963104 623.514771,261.963104 609.877075,261.963104 
	C613.731201,426.697845 617.581909,591.288513 621.428772,755.712891 
	C627.720947,755.712891 633.294861,755.712891 638.846619,755.712891 
	C639.902466,712.747925 640.949890,670.125366 641.997742,626.504639 
M473.001221,319.500916 
	C473.001221,300.282471 473.001221,281.064026 473.001221,262.083923 
	C460.143280,262.083923 447.040283,262.083923 433.545074,262.083923 
	C437.388916,426.818939 441.226654,591.290833 445.065643,755.817993 
	C450.896667,755.817993 456.304779,755.817993 461.799988,755.817993 
	C462.135742,748.472595 462.574005,741.350830 462.768982,734.222412 
	C464.108337,685.258118 465.481934,636.294556 466.674591,587.326599 
	C467.619781,548.518311 468.231476,509.701904 469.156738,470.893066 
	C470.351990,420.760162 471.711975,370.631134 473.001221,319.500916 
M521.488281,261.837860 
	C512.222839,261.837860 502.957367,261.837860 492.947906,261.837860 
	C496.592346,426.874268 500.223419,591.303284 503.857452,755.867920 
	C510.005676,755.867920 515.588135,755.867920 521.523438,755.867920 
	C525.459839,591.127258 529.391785,426.570892 533.327942,261.837402 
	C529.116211,261.837402 525.800476,261.837402 521.488281,261.837860 
M384.998718,707.499817 
	C385.424072,723.596619 385.849396,739.693420 386.273254,755.733887 
	C392.067017,755.733887 397.607239,755.733887 403.645691,755.733887 
	C407.612640,590.978821 411.572266,426.527527 415.535431,261.929321 
	C401.829376,261.929321 389.064941,261.929321 375.954773,261.929321 
	C375.954773,263.665802 375.932617,265.281769 375.958221,266.896942 
	C376.240631,284.717316 376.481110,302.538544 376.827789,320.357697 
	C377.786682,369.646698 378.790680,418.934845 379.777069,468.223328 
	C380.590149,508.854248 381.344574,549.486450 382.233673,590.115723 
	C383.082672,628.912048 384.072021,667.705383 384.998718,707.499817 
M581.273071,677.874939 
	C582.050293,652.409546 582.938354,626.946838 583.574585,601.477966 
	C584.260925,574.007019 584.654602,546.528931 585.277222,519.056274 
	C586.480896,465.944397 587.735657,412.833710 589.010986,359.723541 
	C589.530701,338.080536 590.252625,316.442078 590.698608,294.797760 
	C590.923523,283.879303 590.737854,272.952423 590.737854,262.195129 
	C577.471008,262.195129 564.418640,262.195129 551.264099,262.195129 
	C554.932617,427.018219 558.592224,591.444702 562.251465,755.851074 
	C568.037598,755.851074 573.474548,755.851074 579.377747,755.851074 
	C579.999084,730.045410 580.615845,704.432129 581.273071,677.874939 
M608.500000,793.992249 
	C534.431580,793.992249 460.363159,793.992249 386.324005,793.992249 
	C386.324005,801.878357 386.324005,809.266418 386.324005,816.478699 
	C470.672119,816.478699 554.692932,816.478699 638.651123,816.478699 
	C638.651123,808.831177 638.651123,801.568665 638.651123,793.996399 
	C628.761658,793.996399 619.130798,793.996399 608.500000,793.992249 
z"/>
<path fill="#020202" opacity="1.000000" stroke="none" 
	d="
M641.997498,627.003723 
	C640.949890,670.125366 639.902466,712.747925 638.846619,755.712891 
	C633.294861,755.712891 627.720947,755.712891 621.428772,755.712891 
	C617.581909,591.288513 613.731201,426.697845 609.877075,261.963104 
	C623.514771,261.963104 636.615479,261.963104 649.798462,261.963104 
	C649.798462,275.248657 650.001831,288.494171 649.751526,301.731140 
	C649.361023,322.386383 648.605713,343.034454 648.106079,363.687988 
	C646.736145,420.314362 645.406250,476.941742 644.085632,533.569336 
	C643.363220,564.547119 642.692017,595.526184 641.997498,627.003723 
z"/>
<path fill="#020202" opacity="1.000000" stroke="none" 
	d="
M473.001129,320.000671 
	C471.711975,370.631134 470.351990,420.760162 469.156738,470.893066 
	C468.231476,509.701904 467.619781,548.518311 466.674591,587.326599 
	C465.481934,636.294556 464.108337,685.258118 462.768982,734.222412 
	C462.574005,741.350830 462.135742,748.472595 461.799988,755.817993 
	C456.304779,755.817993 450.896667,755.817993 445.065643,755.817993 
	C441.226654,591.290833 437.388916,426.818939 433.545074,262.083923 
	C447.040283,262.083923 460.143280,262.083923 473.001221,262.083923 
	C473.001221,281.064026 473.001221,300.282471 473.001129,320.000671 
z"/>
<path fill="#020202" opacity="1.000000" stroke="none" 
	d="
M521.986511,261.837646 
	C525.800476,261.837402 529.116211,261.837402 533.327942,261.837402 
	C529.391785,426.570892 525.459839,591.127258 521.523438,755.867920 
	C515.588135,755.867920 510.005676,755.867920 503.857452,755.867920 
	C500.223419,591.303284 496.592346,426.874268 492.947906,261.837860 
	C502.957367,261.837860 512.222839,261.837860 521.986511,261.837646 
z"/>
<path fill="#020202" opacity="1.000000" stroke="none" 
	d="
M384.999207,706.999878 
	C384.072021,667.705383 383.082672,628.912048 382.233673,590.115723 
	C381.344574,549.486450 380.590149,508.854248 379.777069,468.223328 
	C378.790680,418.934845 377.786682,369.646698 376.827789,320.357697 
	C376.481110,302.538544 376.240631,284.717316 375.958221,266.896942 
	C375.932617,265.281769 375.954773,263.665802 375.954773,261.929321 
	C389.064941,261.929321 401.829376,261.929321 415.535431,261.929321 
	C411.572266,426.527527 407.612640,590.978821 403.645691,755.733887 
	C397.607239,755.733887 392.067017,755.733887 386.273254,755.733887 
	C385.849396,739.693420 385.424072,723.596619 384.999207,706.999878 
z"/>
<path fill="#020202" opacity="1.000000" stroke="none" 
	d="
M581.252808,678.346924 
	C580.615845,704.432129 579.999084,730.045410 579.377747,755.851074 
	C573.474548,755.851074 568.037598,755.851074 562.251465,755.851074 
	C558.592224,591.444702 554.932617,427.018219 551.264099,262.195129 
	C564.418640,262.195129 577.471008,262.195129 590.737854,262.195129 
	C590.737854,272.952423 590.923523,283.879303 590.698608,294.797760 
	C590.252625,316.442078 589.530701,338.080536 589.010986,359.723541 
	C587.735657,412.833710 586.480896,465.944397 585.277222,519.056274 
	C584.654602,546.528931 584.260925,574.007019 583.574585,601.477966 
	C582.938354,626.946838 582.050293,652.409546 581.252808,678.346924 
z"/>
<path fill="#030303" opacity="1.000000" stroke="none" 
	d="
M609.000000,793.994324 
	C619.130798,793.996399 628.761658,793.996399 638.651123,793.996399 
	C638.651123,801.568665 638.651123,808.831177 638.651123,816.478699 
	C554.692932,816.478699 470.672119,816.478699 386.324005,816.478699 
	C386.324005,809.266418 386.324005,801.878357 386.324005,793.992249 
	C460.363159,793.992249 534.431580,793.992249 609.000000,793.994324 
z"/>
</svg>