<svg version="1.1" id="Layer_1" xmlns="http://www.w3.org/2000/svg" xmlns:xlink="http://www.w3.org/1999/xlink" x="0px" y="0px"
	 width="100%" viewBox="0 0 796 432" enable-background="new 0 0 896 432" xml:space="preserve">
<path fill="#000000" opacity="1.000000" stroke="none" 
	d="
M152.747513,327.843170 
	C150.985809,332.413055 149.661270,336.719238 149.390335,341.247894 
	C149.136108,345.497162 146.823685,347.707642 142.781464,347.928802 
	C138.629257,348.155975 134.443146,348.187073 130.294281,347.935120 
	C125.975883,347.672852 123.747314,345.223297 123.767258,340.724731 
	C123.832245,326.060394 123.701492,311.394501 123.856140,296.731445 
	C123.960457,286.839172 130.679260,278.735931 141.012070,275.914734 
	C156.732925,271.622406 172.481201,267.426239 188.262070,263.360962 
	C192.584000,262.247589 195.537140,260.086487 197.682068,256.051422 
	C203.539993,245.031403 209.570450,234.092209 215.896912,223.335297 
	C221.913910,213.104538 230.948410,207.633194 243.055679,207.663864 
	C257.886932,207.701447 272.718323,207.681778 287.549652,207.665161 
	C294.817017,207.657013 294.834534,207.634811 294.837616,200.574493 
	C294.847565,177.577591 294.829315,154.580658 294.852112,131.583771 
	C294.860809,122.790604 295.935303,121.729729 304.522339,121.729713 
	C464.334473,121.729324 624.146606,121.729698 783.958740,121.731697 
	C793.751709,121.731819 794.218567,122.208870 794.217651,131.812943 
	C794.212585,184.805908 794.210999,237.798874 794.214722,290.791840 
	C794.215515,302.070526 794.006775,302.304230 782.817688,302.303833 
	C665.500122,302.299744 548.182556,302.293335 430.864990,302.284821 
	C388.370697,302.281738 345.876434,302.273590 303.382141,302.262329 
	C296.374664,302.260498 294.870422,300.790955 294.863190,293.767273 
	C294.839325,270.603760 294.736481,247.439255 294.939362,224.277557 
	C294.980713,219.561188 293.700165,217.837784 288.781219,217.928146 
	C273.455261,218.209686 258.120483,218.153381 242.790771,218.027786 
	C234.776474,217.962128 229.031891,221.680984 225.166809,228.268494 
	C218.510590,239.613052 211.768753,250.941360 205.866653,262.680603 
	C202.735733,268.908020 198.117920,271.623596 191.853485,273.215881 
	C176.216934,277.190338 160.644485,281.418732 145.063995,285.611023 
	C137.077805,287.759888 134.252365,291.375336 134.194458,299.490234 
	C134.118332,310.154877 134.108917,320.820587 134.170013,331.485229 
	C134.181549,333.500488 133.422073,336.274475 136.477951,336.788452 
	C139.829163,337.352051 139.983582,334.443726 140.557632,332.249268 
	C149.404404,298.430054 185.195084,282.071533 216.281815,297.757843 
	C226.079041,302.701569 233.416046,310.282166 238.633224,319.937836 
	C240.351532,323.118042 240.672409,326.158783 237.203720,328.177246 
	C233.465347,330.352631 231.380936,327.845978 229.683487,324.848267 
	C220.995636,309.505096 207.569992,301.771881 190.203140,302.357300 
	C172.940140,302.939178 160.429855,311.827972 152.747513,327.843170 
M427.500000,132.198410 
	C389.176300,132.192215 350.852631,132.188171 312.528931,132.177917 
	C305.334656,132.175980 305.312561,132.164551 305.311157,139.354507 
	C305.301636,188.009323 305.299438,236.664154 305.302765,285.318970 
	C305.303223,291.915436 305.323517,291.966095 312.011414,291.966888 
	C466.973724,291.985291 621.936035,291.994598 776.898376,291.991791 
	C783.761841,291.991669 783.829041,291.931030 783.833252,285.009796 
	C783.862427,236.521667 783.866089,188.033524 783.865662,139.545395 
	C783.865540,132.195801 783.835999,132.191162 776.415527,132.191284 
	C660.443665,132.193192 544.471863,132.196365 427.500000,132.198410 
z"/>
<path fill="#000000" opacity="1.000000" stroke="none" 
	d="
M507.000000,329.145599 
	C442.038544,329.141083 377.577118,329.126160 313.115662,329.147583 
	C306.762177,329.149689 305.079285,327.929199 305.169098,336.116364 
	C305.239929,342.571136 299.023651,347.919922 291.462616,348.015717 
	C274.975555,348.224640 258.483673,348.064362 241.993835,348.023010 
	C241.010208,348.020538 239.994843,347.845490 239.050095,347.563538 
	C236.152924,346.698883 234.426315,344.835785 234.855026,341.672577 
	C235.266968,338.632935 237.443787,337.622406 240.238647,337.616913 
	C249.899445,337.597931 259.560394,337.620422 269.221069,337.576538 
	C276.047546,337.545502 282.874817,337.325500 289.699463,337.399841 
	C293.306061,337.439117 294.905640,335.956604 294.866455,332.367828 
	C294.802795,326.539246 294.859406,320.709137 294.888672,314.879822 
	C294.907654,311.105316 295.673676,307.459473 300.254211,307.343903 
	C304.709198,307.231476 305.550934,310.620605 305.285339,314.322174 
	C305.044800,317.674286 306.805145,318.735474 309.833435,318.667664 
	C312.996521,318.596802 316.162506,318.661377 319.327240,318.661072 
	C397.780304,318.653534 476.233337,318.645020 554.686401,318.639038 
	C555.851807,318.638977 557.023804,318.594788 558.181396,318.697662 
	C561.239990,318.969513 563.181580,320.475037 563.234802,323.735291 
	C563.292236,327.251221 561.231506,328.828247 557.967957,329.104218 
	C556.643738,329.216217 555.304565,329.162964 553.972168,329.162659 
	C538.481445,329.159363 522.990723,329.151794 507.000000,329.145599 
z"/>
<path fill="#000000" opacity="1.000000" stroke="none" 
	d="
M569.191284,359.508545 
	C561.519104,338.789154 570.412231,317.131897 590.191833,309.643402 
	C616.877991,299.540192 641.615112,320.106262 641.464478,343.824738 
	C641.365906,359.337128 634.816345,370.938385 621.387146,378.058594 
	C607.690063,385.320831 594.058167,383.788727 581.325928,374.977722 
	C575.827271,371.172516 572.352539,365.689484 569.191284,359.508545 
M602.772949,317.717438 
	C594.074280,318.070953 586.989685,321.663727 581.964050,328.748810 
	C575.482971,337.885712 575.129944,347.850250 580.122925,357.539825 
	C585.304871,367.596161 594.072754,372.161957 605.542480,371.771790 
	C620.495605,371.263123 632.859619,356.818024 631.060791,342.005463 
	C629.538513,329.469635 619.806702,317.540222 602.772949,317.717438 
z"/>
<path fill="#000000" opacity="1.000000" stroke="none" 
	d="
M171.035446,376.052124 
	C153.980011,363.752380 149.089386,342.600708 159.215836,326.057495 
	C170.177414,308.150024 191.263351,302.059875 209.483948,311.538757 
	C224.151932,319.169464 232.471985,336.984222 228.765198,352.823517 
	C224.746185,369.997040 209.720352,382.063995 192.540634,382.351807 
	C184.743423,382.482422 177.805511,380.370697 171.035446,376.052124 
M169.002426,359.399689 
	C178.216843,372.465393 192.799316,375.717041 206.210876,367.827942 
	C215.387177,362.430115 222.512924,348.279236 217.881821,336.251160 
	C213.144104,323.946136 201.762344,316.242371 189.194153,317.886627 
	C168.479111,320.596680 158.840881,339.736816 169.002426,359.399689 
z"/>
<path fill="#000000" opacity="1.000000" stroke="none" 
	d="
M648.443604,318.931885 
	C680.294617,318.763092 711.748657,318.688446 743.202698,318.633545 
	C754.521301,318.613770 765.843262,318.485321 777.157166,318.720886 
	C781.957275,318.820862 784.531799,317.468811 783.838074,312.243103 
	C783.709106,311.271790 783.815857,310.232544 784.006042,309.262360 
	C784.557129,306.450897 786.267273,304.785828 789.193054,304.886536 
	C792.097473,304.986542 793.937561,306.716278 794.069580,309.568146 
	C794.292664,314.384521 794.258606,319.218750 794.157898,324.041779 
	C794.101929,326.723145 792.375854,328.332550 789.864380,328.858521 
	C788.257812,329.195007 786.557007,329.158569 784.898499,329.158966 
	C740.789001,329.169403 696.679565,329.162811 652.570068,329.159210 
	C651.904297,329.159149 651.238464,329.156464 650.572693,329.160797 
	C647.365356,329.181793 644.972656,327.808868 644.248657,324.633179 
	C643.573303,321.670410 645.474548,320.020874 648.443604,318.931885 
z"/>
<path fill="#000000" opacity="1.000000" stroke="none" 
	d="
M261.935364,241.006454 
	C261.978577,237.015182 261.771179,233.490845 262.137756,230.027267 
	C262.477600,226.816849 264.102997,224.091660 267.862030,224.388794 
	C271.328583,224.662827 272.433350,227.195938 272.410309,230.434937 
	C272.361694,237.267242 272.460663,244.100861 272.384125,250.932648 
	C272.261292,261.897980 264.438232,270.671326 253.578415,271.041931 
	C240.594803,271.485016 227.584793,271.197449 214.586594,271.139404 
	C211.272308,271.124603 208.590576,269.966064 208.586319,266.010345 
	C208.581696,261.724548 211.452393,260.838318 214.987793,260.834747 
	C225.986755,260.823639 236.985733,260.810455 247.984680,260.788269 
	C259.118042,260.765839 261.932587,257.980621 261.942230,246.999435 
	C261.943848,245.166260 261.937683,243.333069 261.935364,241.006454 
z"/>
</svg>