<?xml version="1.0" encoding="UTF-8"?>
<svg xmlns="http://www.w3.org/2000/svg" version="1.1" viewBox="0 0 409.9 175.4">
  <!-- Generator: Adobe Illustrator 29.3.1, SVG Export Plug-In . SVG Version: 2.1.0 Build 151)  -->
  <defs>
    <style>
      .st0 {
        fill: #1c2933;
      }

      .st1 {
        isolation: isolate;
      }

      .st2 {
        fill: #fff;
      }

      .st3 {
        fill: #8AC732;
      }
    </style>
  </defs>
  <g id="Layer_2">
    <rect class="st0" width="409.9" height="175.4"/>
  </g>
  <g id="Layer_1">
    <g id="Layer_11" data-name="Layer_1">
      <g>
        <polyline class="st3" points="0 168.6 0 175.4 75.9 175.4 75.9 168.6"/>
        <polygon class="st3" points="68.5 0 71.8 148 76.4 0 68.5 0"/>
        <polyline class="st3" points="58.9 0 51 0 54.3 148"/>
        <polyline class="st3" points="41.9 0 34 0 37.3 148"/>
        <polyline class="st3" points="25.1 0 17.2 0 20.5 148"/>
        <polyline class="st3" points="7.9 0 0 0 3.3 148"/>
      </g>
    </g>
    <g id="Layer_3">
      <g class="st1">
        <g class="st1">
          <path class="st2" d="M113.7,108.8h-10.7v-6.3h28v6.3h-10.7v32.4h-6.6v-32.4Z"/>
        </g>
        <g class="st1">
          <path class="st2" d="M157.7,128.1c0,7.7-6.2,13.8-14,13.8s-14-6.1-14-13.8,6.2-13.8,14-13.8,14,6,14,13.8ZM150.9,128.1c0-4.1-2.8-7.6-7.2-7.6s-7.2,3.5-7.2,7.6,2.8,7.6,7.2,7.6,7.2-3.5,7.2-7.6Z"/>
          <path class="st2" d="M187.6,115v38.9h-6.6v-15.4c-.9,1.1-3.3,3.4-7.4,3.4-6.8,0-12.8-5.7-12.8-13.8s6-13.8,12.8-13.8,7.9,4.1,7.9,4.1v-3.4h6.1ZM180.9,124.2s-1.9-3.6-6.2-3.6-7.2,3.3-7.2,7.6,2.7,7.6,7.2,7.6,6.2-3.6,6.2-3.6v-7.9Z"/>
          <path class="st2" d="M194.2,132v-17h6.6v15.2c0,3.9,1.8,5.5,5.2,5.5s5.2-3.2,5.2-3.2v-17.5h6.6v26.2h-6.2v-3.8s-2.5,4.5-7.9,4.5-9.6-3.6-9.6-9.9Z"/>
          <path class="st2" d="M249.1,128c0,.5,0,1.5,0,2.5h-19.6c.5,2.3,3.2,5.3,7.4,5.3s7.2-2.7,7.2-2.7l3.3,5s-4.1,3.8-10.5,3.8-14.1-6.1-14.1-13.8,5.6-13.8,13.2-13.8,13.2,5.6,13.2,13.7ZM242.5,125.7c-.1-2.3-2.2-5.3-6.6-5.3s-6.2,3-6.4,5.3h13Z"/>
        </g>
        <g class="st1">
          <path class="st2" d="M289.5,142.6l-11.6-29-11.8,29-15.3-40h7.5l8.2,23.2,8.8-23.2h5.5l8.6,23.2,8.4-23.2h6.9l-15.3,40Z"/>
        </g>
        <g class="st1">
          <path class="st2" d="M331.4,128.1c0,7.7-6.2,13.8-14,13.8s-14-6.1-14-13.8,6.2-13.8,14-13.8,14,6,14,13.8ZM324.7,128.1c0-4.1-2.8-7.6-7.2-7.6s-7.2,3.5-7.2,7.6,2.8,7.6,7.2,7.6,7.2-3.5,7.2-7.6Z"/>
          <path class="st2" d="M354.3,115.2l-2.3,6s-1.2-.6-3.2-.6c-4,0-5.9,3.5-5.9,3.5v17.1h-6.6v-26.2h6.3v3.8s2.3-4.5,7.1-4.5,4.5.8,4.5.8Z"/>
        </g>
        <g class="st1">
          <path class="st2" d="M365.1,125.4l9.4-10.3h8.6l-11.5,12.4,12.3,13.8h-8.7l-10-11.4v11.4h-6.6v-41.8h6.6v25.9Z"/>
        </g>
        <g class="st1">
          <path class="st2" d="M388.6,132.3s3.5,3.8,7.9,3.8,5-.8,5-2.4-1.2-2-5.2-2.9c-5.2-1.1-9.7-3.3-9.7-8.3s4.1-8.2,11.3-8.2,9.8,3.2,9.8,3.2l-3.3,4.9s-3-2.3-6.5-2.3-4.8.9-4.8,2.5,1.8,2,6.2,2.9c5.2,1.1,8.9,2.8,8.9,8.2s-4.8,8.1-11.4,8.1-11.8-4.8-11.8-4.8l3.7-4.8Z"/>
        </g>
      </g>
    </g>
  </g>
</svg>